<svg width="110" height="312" viewBox="0 0 110 312" fill="none" xmlns="http://www.w3.org/2000/svg">
<g clip-path="url(#clip0_110_20720)">
<path d="M34.2116 60.8081C34.2116 60.8081 24.9681 72.247 20.5678 78.3433C15.2912 85.6646 13.011 90.4889 12.4739 92.4771C10.2125 100.882 10.646 114.837 20.5678 121.131C30.4897 127.425 39.3657 104.227 39.3657 104.227L34.2116 60.8081Z" fill="#2B2942"/>
<path d="M29.1274 100.309L31.1438 97.6608C31.1438 97.6608 32.6419 93.9672 31.1626 92.1675C26.9696 87.0699 19.5447 85.3833 19.3091 87.0982C19.2714 87.3903 17.5094 96.3417 17.5094 96.3417L21.2501 101.402L29.1274 100.309Z" fill="#E97F5B"/>
<path d="M21.4657 102.202L30.304 102.249C31.8116 102.259 32.5277 100.704 31.7457 99.1401L22.2572 80.2951C21.739 79.2586 20.6931 78.5425 19.6943 78.5425L10.856 78.4954C9.34838 78.486 8.63227 80.0407 9.41434 81.6048L18.9028 100.45C19.421 101.486 20.4669 102.202 21.4657 102.202Z" fill="#EABABA"/>
<path d="M20.5696 102.202L29.4079 102.249C30.9155 102.259 31.6316 100.704 30.8495 99.1401L21.3611 80.2951C20.8428 79.2586 19.7969 78.5425 18.7982 78.5425L9.95986 78.4954C8.45226 78.486 7.73615 80.0407 8.51822 81.6048L18.0067 100.45C18.5343 101.486 19.5708 102.193 20.5696 102.202Z" fill="white"/>
<path d="M16.8866 90.3909C17.3578 91.5593 18.4885 92.5015 19.4307 92.5109C20.3635 92.5109 20.7499 91.5781 20.2787 90.4097C19.8076 89.2413 18.6769 88.2991 17.7347 88.2897C16.7924 88.2897 16.4155 89.2225 16.8866 90.3909Z" fill="#EABABA"/>
<path d="M18.4768 81.5701C18.7406 82.2203 19.3813 82.7574 19.909 82.7574C20.4366 82.7574 20.6534 82.2297 20.3895 81.5795C20.1257 80.9294 19.485 80.3923 18.9573 80.3923C18.4296 80.3923 18.2129 80.92 18.4768 81.5701Z" fill="#EABABA"/>
<path d="M12.4951 89.2173C12.4951 89.2173 17.9036 87.2857 19.1097 88.1526C20.3158 89.0194 15.124 91.752 15.124 91.752C15.124 91.752 18.3465 90.6966 19.4018 91.2243C20.4571 91.752 16.7823 94.183 16.7823 94.183C16.7823 94.183 18.9683 93.5611 19.4018 94.7295C19.8352 95.8979 19.138 96.5669 18.0167 97.217C16.8954 97.8672 15.5668 97.7352 14.9449 97.4055C14.3231 97.0662 14.3796 95.7283 14.3796 95.7283C14.3796 95.7283 12.0051 95.3137 11.6942 94.5504C11.3832 93.7778 11.7978 93.0805 11.7978 93.0805C11.7978 93.0805 10.7708 93.2124 10.1395 92.3738C9.50816 91.5352 9.80026 90.8191 9.80026 90.8191C9.80026 90.8191 8.45285 89.3021 7.87807 88.3504C7.31273 87.3988 8.88628 86.0513 9.80026 85.0808C10.7142 84.1103 13.362 85.7781 15.2936 85.6462C15.2936 85.6462 16.3866 85.9383 15.5951 86.9276C14.8036 87.917 12.3726 87.5024 11.9297 87.6814C11.4869 87.8605 12.4951 89.2173 12.4951 89.2173Z" fill="#E97F5B"/>
<path d="M63.4601 53.6073C72.0063 53.2304 82.7103 48.5945 82.7103 48.5945C82.7103 48.5945 77.4054 42.762 75.2948 24.5578C74.5787 18.3672 74.051 14.372 70.8473 9.76444C68.9063 6.97538 61.8866 0.332523 50.8622 6.20274C50.8622 6.20274 45.9625 5.24164 42.6552 11.2909C39.8096 16.4921 44.2194 26.1502 43.5692 30.9556C42.7872 36.7316 40.3844 40.2274 40.3844 40.2274C40.3844 40.2274 34.9948 46.2201 37.765 52.9477C40.5446 59.6754 44.5209 57.5271 48.6574 55.6897C52.7938 53.8523 63.4601 53.6073 63.4601 53.6073Z" fill="#021A5A"/>
<path d="M47.3784 33.6322C43.4547 33.6322 40.2738 30.194 40.2738 25.9528C40.2738 21.7117 43.4547 18.2735 47.3784 18.2735C51.3022 18.2735 54.483 21.7117 54.483 25.9528C54.483 30.194 51.3022 33.6322 47.3784 33.6322Z" fill="#ED5F99"/>
<path d="M68.5468 42.3892C68.5468 42.3892 86.214 48.8531 91.7261 52.1509C97.2383 55.4488 83.1988 94.213 81.5969 101.016C79.9951 107.819 46.5924 106.538 46.9033 102.222C48.6559 78.157 36.5103 67.7357 38.3854 59.736C39.6857 54.1956 56.0243 45.3196 56.0243 45.3196L68.5468 42.3892Z" fill="white"/>
<path d="M60.6151 61.3892C69.6795 61.8792 77.8206 60.5129 78.3953 60.4187L77.4908 55.1327C77.274 55.1704 55.4327 58.8075 45.181 51.9479L42.1941 56.4047C47.1974 59.7591 54.1418 61.0406 60.6151 61.3892Z" fill="#DBDDFF"/>
<path d="M59.6721 74.8077C68.7365 75.2976 76.8776 73.9314 77.4523 73.8371L76.5478 68.5511C76.3311 68.5888 54.4897 72.2259 44.238 65.3663L41.2511 69.8232C46.2545 73.1776 53.2083 74.4684 59.6721 74.8077Z" fill="#DBDDFF"/>
<path d="M58.7393 88.2317C67.8038 88.7217 75.9448 87.3554 76.5196 87.2612L75.615 81.9752C75.3983 82.0129 53.557 85.65 43.3053 78.7904L40.3184 83.2472C45.3217 86.5922 52.2661 87.8831 58.7393 88.2317Z" fill="#DBDDFF"/>
<path d="M57.7935 101.65C66.8579 102.14 74.999 100.774 75.5737 100.68L74.6692 95.3936C74.4525 95.4313 52.6111 99.0684 42.3594 92.2088L39.3725 96.6657C44.3759 100.02 51.3297 101.302 57.7935 101.65Z" fill="#DBDDFF"/>
<path d="M42.7718 65.4789C42.7718 65.4789 42.9697 69.0218 39.1441 75.4291C34.5271 83.165 45.8341 90.6182 48.0861 92.399C50.3381 94.1799 42.7718 65.4789 42.7718 65.4789Z" fill="white"/>
<path d="M83.367 95.4713C83.367 95.4713 81.9065 103.782 85.9205 116.465C85.9205 116.465 69.8081 130.372 43.067 115.004L46.9114 102.218L83.367 95.4713Z" fill="white"/>
<path d="M84.5262 73.6249C78.4393 83.0097 76.1025 94.5617 78.0153 105.586C78.0813 105.972 77.4782 106.038 77.4123 105.652C75.4712 94.4675 77.8834 82.7647 84.0551 73.2386C84.2718 72.9182 84.743 73.3045 84.5262 73.6249Z" fill="#241E22"/>
<path d="M69.0106 44.5006C69.0106 44.5006 62.1416 51.7465 53.9346 46.9693L54.0854 42.3994L54.2456 37.4149L54.3586 33.9286L63.8377 26.4848L69.0106 44.5006Z" fill="#E97F5B"/>
<path d="M62.386 32.3767C59.22 41.4129 55.4039 45.0029 53.9905 45.0123L54.2449 37.3989L62.386 32.3767Z" fill="#B3452C"/>
<path d="M66.9757 23.6639C66.2784 27.1502 65.4021 28.3469 63.169 31.8709C61.1808 35.0086 57.4589 36.8271 55.5085 37.1475C48.4133 38.3159 44.8516 35.7058 44.9176 25.9441C44.9553 19.8855 43.0142 16.6724 44.3428 14.2131C44.437 14.1001 44.5313 13.987 44.6255 13.8739C46.9152 11.2168 50.1848 9.60552 53.6711 9.27573C71.0179 7.65506 67.9839 18.6605 66.9757 23.6639Z" fill="#E97F5B"/>
<path d="M68.2927 22.3537C68.2927 22.3537 64.4954 23.7482 62.3659 22.5516C60.2459 21.3549 61.5368 18.1984 59.8219 18.5753C53.8009 19.8756 59.1529 13.3835 56.7219 14.0902C54.2909 14.7969 51.4264 16.8416 49.0614 16.8981C49.0614 16.8981 50.9459 15.202 50.682 13.7039C50.682 13.7039 46.0085 18.4999 43.2194 18.4528C43.2194 18.4528 43.21 12.4789 48.4301 9.72757C53.6407 6.9762 64.1279 7.01389 67.2845 9.60508C70.441 12.1963 68.2927 22.3537 68.2927 22.3537Z" fill="#021A5A"/>
<path d="M50.5605 33.1614C51.2861 33.3593 52.0493 33.3122 52.5864 32.7468C52.8596 32.4547 52.3979 32.0402 52.1247 32.3323C51.7383 32.7374 51.1918 32.6903 50.6924 32.5584C50.3061 32.4547 50.1742 33.0578 50.5605 33.1614Z" fill="#B3452C"/>
<path d="M58.1535 25.3357C58.1818 25.8539 57.3997 26.3156 56.4103 26.3722C55.421 26.4287 54.5918 26.0518 54.5635 25.5336C54.5353 25.0153 55.3173 24.5536 56.3067 24.4971C57.296 24.4406 58.1252 24.8175 58.1535 25.3357Z" fill="#B3452C"/>
<path d="M47.9009 26.4363C47.9292 26.9546 47.1471 27.4163 46.1578 27.4728C45.6866 27.5011 45.2626 27.4257 44.9328 27.2938C44.9234 26.8509 44.914 26.3986 44.914 25.9275C44.914 25.9087 44.914 25.8898 44.914 25.871C45.2155 25.7202 45.6113 25.6166 46.0541 25.5977C47.0435 25.5412 47.8727 25.9181 47.9009 26.4363Z" fill="#B3452C"/>
<path d="M53.9435 23.3946C53.9718 23.8846 53.6986 24.2898 53.3311 24.3086C52.9636 24.3275 52.6527 23.9506 52.6244 23.4606C52.5961 22.9706 52.8694 22.5655 53.2369 22.5466C53.5949 22.5278 53.9153 22.9047 53.9435 23.3946Z" fill="#2B2942"/>
<path d="M48.0396 24.0057C48.0678 24.4956 47.7946 24.9008 47.4271 24.9196C47.0596 24.9385 46.7487 24.5616 46.7204 24.0716C46.6921 23.5816 46.9654 23.1765 47.3329 23.1576C47.6909 23.1388 48.0113 23.5157 48.0396 24.0057Z" fill="#2B2942"/>
<path d="M53.0371 19.8422C53.725 19.5312 54.6672 19.5972 55.0159 20.3698C55.3457 21.0859 56.5235 20.6996 56.1937 19.9741C55.5812 18.6172 54.0077 18.0519 52.6414 18.6643C51.9253 18.9941 52.3116 20.1719 53.0371 19.8422Z" fill="#2B2942"/>
<path d="M46.0673 21.2961C46.5101 20.6836 47.0566 19.7979 47.9329 19.9675C48.715 20.1183 48.9788 18.9028 48.1968 18.752C46.8022 18.4882 45.8883 19.4305 45.1439 20.4669C44.6822 21.1077 45.6056 21.9368 46.0673 21.2961Z" fill="#2B2942"/>
<path d="M50.3418 27.1107C50.6151 27.1578 50.9449 27.1672 51.3124 27.1295C51.482 27.1107 51.6045 26.9599 51.5856 26.7903C51.5668 26.6207 51.416 26.4982 51.2464 26.5171C50.6622 26.583 50.2194 26.4794 49.9461 26.3757C50.7282 25.4146 50.9543 24.1426 50.9637 24.0861C50.992 23.9165 50.8789 23.7657 50.7093 23.7374C50.5491 23.7092 50.389 23.8222 50.3607 23.9918C50.3607 24.0107 50.1063 25.4335 49.2394 26.2532C49.1735 26.3192 49.1358 26.404 49.1452 26.4982C49.1546 26.5924 49.2017 26.6772 49.2771 26.7244C49.2865 26.7432 49.6728 27.007 50.3418 27.1107Z" fill="#2B2942"/>
<path d="M47.9248 28.716C47.9248 28.716 50.3087 28.9987 54.4357 27.6607C54.4357 27.6607 54.3132 31.5805 51.1473 31.7407C48.4713 31.8726 47.9248 28.716 47.9248 28.716Z" fill="white"/>
<path d="M60.336 26.7828C59.8366 25.5579 59.9968 24.1634 60.6564 23.0138C61.5138 21.5251 63.1251 19.2166 64.8023 19.3485C67.271 19.5464 67.6856 21.7041 67.5725 23.9278C67.4594 26.161 66.178 29.1479 63.0968 28.8558C61.5515 28.7145 60.7412 27.7816 60.336 26.7828Z" fill="#E97F5B"/>
<path d="M63.6527 26.2976C63.4642 25.4025 63.3229 24.4602 63.5867 23.5651C63.8223 22.7642 64.5949 21.5675 65.622 21.8125C65.9612 21.8973 66.1496 21.379 65.8104 21.2942C64.8305 21.0587 63.9636 21.6994 63.4548 22.5192C62.7293 23.697 62.8329 25.1104 63.1156 26.4107C63.191 26.7499 63.728 26.6462 63.6527 26.2976Z" fill="#241E22"/>
<path d="M37.1749 302.048L37.5142 330.701L28.5063 330.881L24.643 303.301L37.1749 302.048Z" fill="#E97F5B"/>
<path d="M33.0949 128.656C33.0949 128.656 23.5405 163.359 16.6526 222.457C21.166 301.041 23.7383 307.759 23.7383 307.759H38.1076C38.1076 307.759 43.535 232.21 46.4654 221.675C49.8481 209.52 72.4809 141.377 72.4809 141.377L33.0949 128.656Z" fill="#021A5A"/>
<path d="M27.9401 151.02C31.2569 151.095 34.5265 150.059 37.5699 148.815C43.9772 146.186 52.0146 141.786 58.6198 146.412C58.9213 146.62 59.204 146.13 58.9025 145.922C56.0946 143.953 52.58 143.576 49.2538 144.066C41.9608 145.14 35.8456 150.417 28.317 150.464C28.2322 150.464 28.138 150.464 28.0532 150.464C28.0155 150.634 27.9778 150.822 27.9401 151.02Z" fill="#4F84AF"/>
<path d="M19.9639 197C22.1782 195.841 24.3171 194.531 26.3524 193.07C30.3946 190.178 34.0411 186.738 37.1411 182.847C38.7053 180.887 40.1469 178.824 41.3907 176.647C42.7098 174.348 43.8405 171.804 43.9159 169.118C44.0384 164.643 40.8253 160.874 36.8208 159.244C33.4381 157.859 29.7445 158.094 26.3053 159.159C26.2676 159.376 26.2205 159.583 26.1828 159.8C30.2345 158.499 34.6536 158.367 38.3943 160.676C40.2883 161.835 41.8901 163.559 42.7287 165.632C43.7369 168.12 43.3977 170.805 42.4366 173.255C40.7123 177.683 37.5369 181.773 34.3521 185.25C30.2533 189.716 25.4007 193.466 20.0676 196.312C20.0299 196.528 20.0016 196.764 19.9639 197Z" fill="#4F84AF"/>
<path d="M38.5677 211.505C39.3403 217.413 41.7148 223.047 45.3613 227.711C45.399 227.448 45.4367 227.193 45.4744 226.948C44.3154 225.412 43.2884 223.763 42.4121 222.049C38.5206 214.379 37.7574 205.361 40.6312 197.22C43.4109 189.343 49.2528 182.644 56.7437 178.931C57.0735 178.771 56.7814 178.281 56.461 178.441C52.1078 180.599 48.2917 183.756 45.2954 187.581C40.0282 194.337 37.4558 202.977 38.5677 211.505Z" fill="#4F84AF"/>
<path d="M17.2169 232.172C17.2451 232.567 17.264 232.954 17.2922 233.349C18.5737 230.692 19.8646 228.045 21.0707 225.35C22.3804 222.438 23.5393 219.366 23.6336 216.134C23.7466 212.422 21.9281 208.257 18.6491 206.476C18.6208 206.684 18.5925 206.891 18.5643 207.098C20.0719 207.984 21.2685 209.426 22.0412 211.046C24.7925 216.822 21.5041 223.173 19.0166 228.403C18.4229 229.656 17.8199 230.918 17.2169 232.172Z" fill="#4F84AF"/>
<path d="M25.1791 246.309C28.7502 254.271 34.3943 261.244 41.3764 266.445C41.3952 266.228 41.4141 266.012 41.4329 265.785C38.38 263.477 35.591 260.829 33.1317 257.899C30.1448 254.347 27.6478 250.38 25.735 246.149C24.0578 242.427 21.3347 235.954 25.801 233.061C27.6666 231.855 30.1165 231.874 32.2365 232.204C34.4979 232.562 36.7311 233.278 38.8606 234.126C40.7262 234.87 42.5259 235.775 44.2408 236.811C44.2597 236.604 44.2879 236.397 44.3068 236.199C41.9511 234.795 39.4448 233.645 36.8347 232.788C33.0657 231.554 27.3557 230.102 24.3122 233.617C21.2216 237.188 23.5396 242.653 25.1791 246.309Z" fill="#8B8654"/>
<path d="M18.6971 255.369C18.716 255.614 18.7348 255.859 18.7442 256.104C20.902 257.47 22.7677 259.364 24.2752 261.428C27.0455 265.225 28.6756 269.691 30.447 273.997C32.0959 278.021 33.971 281.903 36.6376 285.361C37.5421 286.539 38.5221 287.669 39.5491 288.734C39.568 288.489 39.5868 288.235 39.6057 287.98C37.9379 286.218 36.4397 284.296 35.1394 282.242C32.5859 278.219 31.0029 273.724 29.1561 269.361C26.9324 264.113 23.6722 258.346 18.6971 255.369Z" fill="#8B8654"/>
<path d="M19.9398 272.609C19.9587 272.863 19.9775 273.118 19.9964 273.372C21.4945 274.616 22.8043 276.076 23.8878 277.716C27.0255 282.474 28.0432 288.401 26.3754 293.875C25.5933 296.429 24.293 298.803 22.597 300.839C22.6347 301.102 22.6629 301.357 22.6912 301.602C22.955 301.3 23.2094 300.989 23.4638 300.669C27.0538 296.043 28.5708 290.031 27.2894 284.283C26.2717 279.676 23.624 275.501 19.9398 272.609Z" fill="#8B8654"/>
<path d="M22.7176 306.67L39.989 305.162V313.454L23.0474 315.028L22.7176 306.67Z" fill="#8B8654"/>
<path d="M46.0181 104.815C46.0181 104.815 63.3461 115.641 83.9436 109.215C83.9436 109.215 90.6619 127.203 89.6537 138.435C88.6455 149.657 39.5166 142.693 33.3543 132.969C29.736 127.259 46.0181 104.815 46.0181 104.815Z" fill="#021A5A"/>
<path d="M49.2706 118.359C46.9997 125.152 40.5453 130.099 33.4031 130.532C33.0356 130.551 33.045 129.986 33.4031 129.967C40.2909 129.552 46.538 124.747 48.7241 118.208C48.8465 117.869 49.3931 118.019 49.2706 118.359Z" fill="#4F84AF"/>
<path d="M44.3161 109.054C56.1696 116.997 71.4811 119.258 85.1343 115.075C85.5112 114.962 85.7279 115.527 85.3605 115.64C74.6 118.938 62.8124 118.326 52.41 114.057C49.4419 112.842 46.6057 111.315 43.9392 109.525C43.6094 109.308 43.9957 108.837 44.3161 109.054Z" fill="#4F84AF"/>
<path d="M49.2671 107.095C48.438 108.283 47.8726 109.583 47.5711 111.006C47.4863 111.392 46.8833 111.298 46.9681 110.912C47.2884 109.385 47.9009 107.991 48.796 106.719C49.0222 106.389 49.4933 106.775 49.2671 107.095Z" fill="#4F84AF"/>
<path d="M78.3406 110.947C78.8588 112.775 79.0849 114.622 79.019 116.525C79.0096 116.921 78.4065 116.817 78.4159 116.431C78.4819 114.641 78.2558 112.888 77.7658 111.173C77.6716 110.797 78.2369 110.57 78.3406 110.947Z" fill="#8B8654"/>
<path d="M67.1376 111.619C67.458 113.343 67.4391 115.049 67.0999 116.764C67.0246 117.15 66.4215 117.056 66.4969 116.67C66.8267 115.011 66.8361 113.353 66.5346 111.685C66.4592 111.299 67.0622 111.233 67.1376 111.619Z" fill="#8B8654"/>
<path d="M60.8194 112.99C60.6875 113.81 59.9243 114.376 59.0951 114.244C58.2753 114.112 57.71 113.348 57.8419 112.519C57.9738 111.7 58.737 111.134 59.5662 111.266C60.386 111.398 60.9419 112.171 60.8194 112.99Z" fill="#4F84AF"/>
<path d="M79.7805 116.883C79.8464 122.084 80.5437 128.877 86.3008 130.875C86.6683 131.007 86.4516 131.572 86.0747 131.44C80.0349 129.339 79.234 122.291 79.168 116.817C79.168 116.43 79.7805 116.496 79.7805 116.883Z" fill="#8B8654"/>
<path d="M68.2011 305.097L67.8807 331.678L76.2479 331.847L79.8284 306.256L68.2011 305.097Z" fill="#E97F5B"/>
<path d="M89.7681 137.824C91.6526 195.104 87.2334 257.254 80.9863 315.033H66.1176L62.6219 243.601L51.6164 140.576L89.7681 137.824Z" fill="#021A5A"/>
<path d="M57.5117 195.775L57.653 197.123C58.9439 193.335 59.9992 189.462 61.0169 185.59C63.5986 175.743 66.1239 165.605 72.0035 157.105C74.8114 153.054 78.4391 149.341 82.8394 147.033C85.016 145.893 87.5129 145.186 89.9628 145.186C89.9628 144.998 89.9533 144.819 89.9533 144.63C87.4658 144.63 84.9217 145.327 82.698 146.477C73.7843 151.056 68.4324 160.554 65.0968 169.619C61.9685 178.155 60.329 187.154 57.5117 195.775Z" fill="#4F84AF"/>
<path d="M79.3181 191.076C81.7962 195.391 85.3768 198.83 89.5509 201.327C89.5604 201.12 89.5698 200.913 89.5698 200.706C89.3154 200.555 89.061 200.395 88.8066 200.225C80.5242 194.816 75.257 185.074 76.4348 175.095C77.3582 167.218 82.795 160.113 90.1634 157.334C90.1634 157.136 90.1634 156.929 90.154 156.731C86.4321 158.097 83.1342 160.547 80.6561 163.666C74.3713 171.534 74.3996 182.492 79.3181 191.076Z" fill="#4F84AF"/>
<path d="M58.28 202.922L58.3836 203.893C59.8912 201.132 61.87 198.71 64.7532 197.335C69.1253 195.243 74.8165 196.072 76.6821 201.047C78.4159 205.664 76.9177 211.261 75.6268 215.803C73.0922 224.679 68.4563 232.886 62.1997 239.651L62.2751 240.395C65.9122 236.532 69.0311 232.188 71.5186 227.487C74.1286 222.549 76.0602 217.254 77.1909 211.789C78.1238 207.256 78.9435 201.311 75.2028 197.759C71.8578 194.583 66.421 195.309 62.8782 197.749C60.9466 199.106 59.4672 200.906 58.28 202.922Z" fill="#4F84AF"/>
<path d="M78.8262 249.549C80.2772 254.053 82.8213 258.039 86.0532 261.403C86.0721 261.158 86.0909 260.913 86.1098 260.658C86.0061 260.536 85.8931 260.423 85.7894 260.3C79.4858 253.347 76.3575 243.472 78.8921 234.257C80.3715 228.858 83.9709 224.08 88.701 221.178C88.7104 220.952 88.7198 220.726 88.7386 220.5C87.1745 221.414 85.7234 222.526 84.4137 223.807C77.5824 230.478 75.9523 240.654 78.8262 249.549Z" fill="#8B8654"/>
<path d="M62.6975 245.062L62.7258 245.675C64.6574 245.034 66.834 245.006 68.6902 245.684C73.5051 247.446 76.3413 252.299 77.717 256.972C79.2529 262.192 79.4696 267.714 81.1562 272.906C81.9194 275.261 83.0219 277.513 84.52 279.426C84.5389 279.172 84.5672 278.917 84.586 278.653C81.9289 275.035 80.8924 270.38 80.1292 266.027C79.1963 260.675 78.4991 255.012 75.3237 250.442C72.9115 246.966 68.9541 244.063 64.5161 244.648C63.9036 244.723 63.2912 244.864 62.6975 245.062Z" fill="#8B8654"/>
<path d="M63.8398 268.389L63.8775 269.067C67.9857 271.103 71.7264 274.674 74.5343 277.764C78.1431 281.75 81.1489 286.254 83.448 291.097C83.4857 290.73 83.5234 290.372 83.5516 290.004C82.9015 288.695 82.2042 287.413 81.4504 286.15C79.0571 282.155 76.1644 278.452 72.8383 275.183C70.1905 272.591 67.2319 270.01 63.8398 268.389Z" fill="#8B8654"/>
<path d="M64.7539 286.987L64.7916 287.826C71.2648 294.657 75.0715 303.957 74.9019 313.408C74.8925 313.776 75.4578 313.776 75.4673 313.408C75.5238 310.44 75.2034 307.481 74.5156 304.589C72.942 297.974 69.5123 291.831 64.7539 286.987Z" fill="#8B8654"/>
<path d="M59.6807 124.407C59.3038 132.218 59.0117 140.029 58.7008 147.841C58.3333 157.235 57.9752 166.629 57.5889 176.023C57.4287 179.896 57.2685 183.769 57.0895 187.641C57.0707 188.009 56.5053 187.943 56.5242 187.585C56.9011 179.773 57.1932 171.962 57.5041 164.151C57.8716 154.757 58.2296 145.362 58.616 135.968C58.7761 132.096 58.9363 128.223 59.1153 124.35C59.1342 123.983 59.6995 124.039 59.6807 124.407Z" fill="#4F84AF"/>
<path d="M56.1854 123.246C55.6483 125.931 55.2714 128.645 55.0547 131.378C54.9604 132.621 54.7343 134.148 55.5164 135.231C56.2702 136.268 57.6647 136.475 58.8519 136.56C59.2194 136.588 59.1534 137.154 58.7954 137.125C57.6458 137.041 56.3926 136.833 55.5069 136.051C54.6872 135.335 54.4328 134.289 54.4045 133.234C54.3103 129.917 54.9887 126.431 55.6294 123.199C55.6954 122.831 56.2513 122.888 56.1854 123.246Z" fill="#4F84AF"/>
<path d="M64.9196 308.857L83.1804 309.498L82.4454 316.414L64.5332 315.868L64.9196 308.857Z" fill="#8B8654"/>
<path d="M40.7514 71.6599C41.9481 68.6164 42.2873 65.3751 41.769 62.1526C41.7031 61.7663 42.3155 61.7003 42.3721 62.0866C42.9092 65.4128 42.5417 68.7766 41.3073 71.9143C41.166 72.2818 40.6101 72.0274 40.7514 71.6599Z" fill="#241E22"/>
<path d="M67.371 43.0583C67.371 43.0583 84.5764 45.0181 91.7375 52.151C96.9387 57.3333 90.6162 64.4944 89.7682 72.089C88.9202 79.6835 87.7801 101.28 91.7375 116.77C95.695 132.261 108.981 177.706 105.871 179.854C102.762 182.002 78.0278 187.439 69.6229 184.443C61.2181 181.446 65.6843 125.449 65.9953 108.497C66.3062 91.5559 62.3017 92.1495 59.8424 81.3419C57.3831 70.5343 64.4971 55.8634 67.371 43.0583Z" fill="#2B2942"/>
<path d="M81.7486 143.382C83.944 152.532 90.7565 159.73 99.7832 162.416C100.217 162.548 100.038 163.226 99.5948 163.094C90.3325 160.343 83.3221 152.965 81.0702 143.571C80.9665 143.128 81.6449 142.939 81.7486 143.382Z" fill="#514F6A"/>
<path d="M105.485 172.707C93.5839 177.739 80.5809 179.906 67.6909 178.992C67.3328 178.963 67.3234 178.398 67.6909 178.426C80.4772 179.34 93.3955 177.211 105.202 172.226C105.532 172.085 105.814 172.566 105.485 172.707Z" fill="#514F6A"/>
<path d="M70.8099 55.4097C66.2023 62.3447 65.2035 71.6353 66.598 79.7104C67.333 83.9882 68.7558 88.1058 69.7451 92.3271C70.7062 96.4447 71.1302 100.704 71.3375 104.925C71.7144 112.661 71.2433 120.463 71.1585 128.208C71.0643 136.208 70.9606 144.207 71.0737 152.207C71.1962 161.092 71.5166 170.034 72.7603 178.844C72.8074 179.202 72.2704 179.353 72.2138 178.995C69.9713 163.118 70.3764 146.893 70.5649 130.903C70.612 126.851 70.6308 122.79 70.7251 118.738C70.8099 114.885 70.9512 111.031 70.857 107.177C70.7533 102.89 70.433 98.5459 69.6038 94.3341C68.7369 89.962 67.2482 85.7408 66.3436 81.3781C64.5439 72.7283 65.3354 62.6368 70.3199 55.1271C70.5178 54.8256 71.0077 55.1082 70.8099 55.4097Z" fill="#514F6A"/>
<path d="M81.2008 46.3295C81.2008 46.3295 75.519 49.7404 74.0491 55.507C72.5792 61.2736 69.0364 66.7103 63.8069 63.1486C58.5774 59.5775 67.4157 46.9231 66.5111 41.6936C65.6066 36.4641 63.0813 30.2641 65.0224 28.879C66.9634 27.5033 80.1832 42.2307 81.2008 46.3295Z" fill="#021A5A"/>
<path d="M9.8453 170.694C16.6483 172.475 23.5362 174.453 23.5362 174.453C23.5362 174.453 30.5748 138.93 32.2897 131.788C33.9952 124.655 40.7605 119.624 45.9429 108.307C51.1253 96.9909 45.2833 83.2529 46.1219 69.5903C46.9605 55.9277 53.9614 46.5429 53.9614 46.5429C53.9614 46.5429 32.0918 56.493 33.7879 63.7766C35.4839 71.0602 32.0918 70.6267 31.7149 78.9751C31.338 87.3328 37.7453 93.7967 34.7301 103.191C33.4392 107.214 29.1708 115.695 24.3654 124.627C23.8848 125.522 23.4043 126.417 22.9143 127.312C16.8933 138.393 10.4483 149.568 8.15867 153.356C3.8149 160.517 0.686634 168.3 9.8453 170.694Z" fill="#2B2942"/>
<path d="M36.1761 64.2911C36.3268 66.6656 36.5341 69.1155 35.9499 71.4428C35.3186 73.9775 33.7168 75.9185 32.2563 78.0197C31.3235 79.3671 30.5226 80.8276 30.3812 82.4954C30.2399 84.2386 30.8052 85.9911 31.559 87.5364C32.9253 90.3443 34.9417 92.7942 35.8086 95.8377C36.732 99.0602 36.5341 102.518 35.3092 105.628C35.1773 105.957 34.6308 105.816 34.7627 105.477C35.9405 102.509 36.1572 99.2298 35.3092 96.1392C34.4235 92.9167 32.2092 90.3726 30.8618 87.3668C29.7405 84.8699 29.3824 82.2222 30.5885 79.6969C31.8134 77.1434 33.9995 75.193 35.0171 72.5264C36.0159 69.8975 35.7803 67.0425 35.6107 64.2911C35.5919 63.9331 36.1572 63.9331 36.1761 64.2911Z" fill="#514F6A"/>
<path d="M22.9022 127.318C23.4958 126.592 24.08 125.867 24.6642 125.141C28.942 119.789 33.2575 114.324 36.6307 108.341C38.2514 105.458 39.6271 102.424 40.5599 99.2482C41.5493 95.9032 42.0204 92.4263 42.256 88.9494C43.1228 76.0312 40.5411 60.9175 49.5113 50.1287C49.7468 49.8461 49.3417 49.4503 49.1155 49.733C44.7152 55.0284 42.9626 61.8126 42.3219 68.5497C41.6529 75.5129 42.1806 82.5138 41.6623 89.4865C41.3891 93.1707 40.8049 96.8455 39.6271 100.36C38.5435 103.611 36.9982 106.692 35.2268 109.622C32.042 114.908 28.2353 119.836 24.3532 124.642C23.8727 125.528 23.3921 126.423 22.9022 127.318Z" fill="#514F6A"/>
<path d="M67.6208 31.9845C63.6971 31.9845 60.5163 28.5463 60.5163 24.3052C60.5163 20.064 63.6971 16.6258 67.6208 16.6258C71.5446 16.6258 74.7254 20.064 74.7254 24.3052C74.7254 28.5463 71.5446 31.9845 67.6208 31.9845Z" fill="#ED5F99"/>
<path d="M74.1117 24.1596C74.1117 27.0146 71.9728 29.3326 69.3251 29.3326C66.6868 29.3326 64.5384 27.0146 64.5384 24.1596C64.5384 21.3046 66.6773 18.9867 69.3251 18.9867C71.9728 18.9867 74.1117 21.3046 74.1117 24.1596Z" fill="#FF70AA"/>
<path d="M67.15 18.7427C67.1783 18.7427 67.216 18.7427 67.2443 18.7333C67.706 18.6862 68.0452 18.2622 67.9981 17.8005C67.9321 17.188 66.2832 2.82814 58.3494 1.16036C55.061 0.472514 51.9044 1.1792 49.219 3.20504C47.2026 4.72206 46.1662 6.43695 46.1285 6.51233C45.8835 6.9175 46.0154 7.43574 46.4206 7.6713C46.8257 7.91629 47.344 7.78437 47.5795 7.3792C47.7303 7.13422 51.2731 1.40534 58.0008 2.81872C64.7379 4.24151 66.302 17.8476 66.3209 17.9795C66.3586 18.4224 66.726 18.7427 67.15 18.7427Z" fill="#FF70AA"/>
<path d="M92.2898 52.7036C92.2898 52.7036 117.071 94.6055 103.314 107.674C89.5572 120.743 46.2797 105.366 49.0028 96.6313C51.7259 87.8967 52.263 86.9544 61.9682 87.9815C70.5332 88.886 85.5433 93.1073 85.9202 90.6857C85.9202 90.6857 75.7062 74.6675 76.7521 66.0742C78.2408 53.7967 83.7153 51.9404 92.2898 52.7036Z" fill="#2B2942"/>
<path d="M80.5345 70.5467C81.5145 73.6561 82.6075 76.7372 83.5969 79.8467C84.7558 83.4932 85.7263 87.1962 86.5555 90.9275C86.6309 91.2856 86.0938 91.4363 86.009 91.0783C85.1704 87.347 84.2093 83.6439 83.0503 79.9974C82.061 76.888 80.968 73.8163 79.988 70.6974C79.8844 70.3488 80.4309 70.198 80.5345 70.5467Z" fill="#514F6A"/>
<path d="M62.7405 87.762C70.5611 88.8738 78.3253 90.9562 86.2779 90.7206C86.6453 90.7112 86.6453 91.2765 86.2779 91.286C78.2782 91.5215 70.4575 89.4297 62.5897 88.3085C62.2316 88.2519 62.3824 87.7054 62.7405 87.762Z" fill="#514F6A"/>
<path d="M80.2408 76.6971C81.07 77.9032 82.1347 78.8831 83.4068 79.6086C83.7271 79.7877 83.435 80.2776 83.1241 80.0986C81.7673 79.326 80.6366 78.2801 79.7508 76.9892C79.553 76.6782 80.0429 76.3956 80.2408 76.6971Z" fill="#514F6A"/>
<path d="M90.6943 113.271C82.3272 113.724 73.9411 112.471 66.0734 109.606C65.7342 109.484 65.8849 108.937 66.2241 109.06C74.0542 111.915 82.3743 113.158 90.6943 112.706C91.0524 112.687 91.0524 113.253 90.6943 113.271Z" fill="#514F6A"/>
<path d="M55.0818 90.2445C55.0818 90.2445 45.7536 81.0387 44.3308 80.5487C42.908 80.0587 31.8648 85.1752 30.5928 85.4013C29.3207 85.6274 30.8849 87.4083 33.0332 86.7676C35.1815 86.1268 39.2897 85.3825 39.2897 85.3825C39.2897 85.3825 35.7752 86.711 35.4831 87.7852C35.191 88.8594 34.8894 95.766 36.8964 98.0746C38.9034 100.383 42.173 99.0168 43.2283 98.8189C44.2742 98.6211 42.0317 96.322 42.0317 96.322C42.0317 96.322 43.3037 96.3408 45.0092 95.7755C46.6676 95.229 50.135 97.5186 51.9913 97.2925C53.8475 97.0664 55.0818 90.2445 55.0818 90.2445Z" fill="#E97F5B"/>
<path d="M42.2501 84.5469C41.2796 84.7731 40.3939 85.1217 39.5176 85.5834C39.1972 85.753 38.9145 85.263 39.2349 85.0934C40.1583 84.6035 41.0817 84.236 42.1088 84.0004C42.4574 83.9156 42.6082 84.4621 42.2501 84.5469Z" fill="#B3452C"/>
<path d="M39.8433 87.6736C38.4299 87.7961 37.1485 88.3614 36.1026 89.3225C35.8387 89.5675 35.4336 89.1717 35.7068 88.9268C36.8752 87.862 38.2792 87.2496 39.8527 87.1176C40.2014 87.0705 40.2014 87.6359 39.8433 87.6736Z" fill="#B3452C"/>
<path d="M40.6784 89.6367C38.9258 89.8252 37.0036 90.0702 35.8541 91.5683C35.6374 91.851 35.1474 91.5683 35.3641 91.2857C36.655 89.599 38.6903 89.2881 40.6784 89.0714C41.0365 89.0337 41.0365 89.599 40.6784 89.6367Z" fill="#B3452C"/>
<path d="M40.3872 92.318C38.6817 92.2803 37.1176 93.0623 36.1282 94.4663C35.9209 94.7584 35.4309 94.4757 35.6382 94.1836C36.7313 92.6195 38.465 91.7149 40.3778 91.7526C40.7547 91.7526 40.7547 92.318 40.3872 92.318Z" fill="#B3452C"/>
<path d="M42.175 96.6213C40.903 96.5083 39.7628 95.9146 38.9714 94.9064C38.7452 94.6238 39.1504 94.2186 39.3671 94.5107C40.0644 95.3964 41.0443 95.9618 42.175 96.0654C42.5331 96.0842 42.5425 96.6496 42.175 96.6213Z" fill="#B3452C"/>
<path d="M40.1761 96.0638C39.5542 96.111 39.0266 96.5538 38.8475 97.1474C38.7439 97.4961 38.1974 97.3453 38.301 96.9967C38.5554 96.1487 39.2904 95.5645 40.1761 95.4985C40.5342 95.4702 40.5342 96.0356 40.1761 96.0638Z" fill="#B3452C"/>
</g>
<defs>
<clipPath id="clip0_110_20720">
<rect width="108.915" height="343.139" fill="white" transform="matrix(-1 0 0 1 109.432 0.90625)"/>
</clipPath>
</defs>
</svg>
