<svg width="149" height="313" viewBox="0 0 149 313" fill="none" xmlns="http://www.w3.org/2000/svg">
<g clip-path="url(#clip0_110_21039)">
<path d="M132.586 52.853C132.586 52.853 124.609 96.1735 118.135 100.826C111.651 105.478 83.6763 70.35 83.6763 70.35L94.8126 56.867L111.744 76.8856C114.399 70.2265 118.259 64.5657 124.3 50.6196L132.586 52.853Z" fill="#9C4825"/>
<path d="M123.926 51.4519L123.391 52.6664C122.671 53.6544 122.805 55.2189 123.731 56.104C124.595 56.9274 125.759 57.3288 126.891 57.6067C128.023 57.8949 129.268 58.1213 130.411 57.7611C131.646 57.37 132.5 56.1864 132.171 55.0027L132.397 53.7574C132.428 53.778 132.459 53.8088 132.49 53.8397C133.447 55.0233 133.2 56.6907 132.088 57.689C130.616 59.0065 128.496 58.8109 126.736 58.358C124.987 57.9155 123.093 57.1435 122.3 55.3836C121.693 54.025 122.691 52.2753 123.926 51.4519Z" fill="white"/>
<path d="M111.329 77.3094C111.34 79.8516 111.813 82.3115 112.739 84.6787C112.873 85.0183 113.419 84.8537 113.285 84.514C112.369 82.1982 111.906 79.7898 111.895 77.2888C111.906 76.9286 111.329 76.9492 111.329 77.3094Z" fill="#612525"/>
<path d="M110.466 82.3608C110.755 81.4037 111.29 80.5185 111.794 79.654C111.979 79.3349 111.465 79.0673 111.29 79.3864C110.765 80.3024 110.219 81.2184 109.921 82.227C109.797 82.5873 110.364 82.7108 110.466 82.3608Z" fill="#612525"/>
<path d="M87.3106 47.4499L97.922 58.226L81.6086 75.5583L87.3106 47.4499Z" fill="#021A5A"/>
<path d="M142.709 43.6627C142.976 46.493 140.527 46.9871 137.068 49.7866C134.794 51.6289 132.18 54.6755 128.907 54.4387C124.182 54.0991 124.182 51.0834 124.182 51.0834C124.182 51.0834 121.681 48.5001 122.577 44.9492C122.577 44.9492 123.616 39.7001 124.903 38.9282C126.189 38.1563 128.042 39.6281 128.042 39.6281C129.287 39.1032 135.144 27.7095 136.935 27.2155C136.935 27.2155 139.106 26.9067 137.943 29.8503C136.914 32.4646 134.207 37.7446 134.207 37.7446C134.207 37.7446 140.002 29.5313 141.937 29.5725C142.493 29.593 142.904 29.8812 142.74 30.7046C142.503 31.8882 141.679 33.2365 140.959 34.204C139.693 35.9125 137.923 38.5268 137.48 39.4119C137.48 39.4119 139.106 38.887 140.269 39.5972C141.432 40.3074 140.455 41.9027 140.455 41.9027C140.455 41.9027 142.544 41.913 142.709 43.6627Z" fill="#9C4825"/>
<path d="M129.228 45.9294C129.434 45.9809 129.63 46.0118 129.805 46.0221C130.35 46.0735 130.803 45.9603 131.112 45.6927C131.38 45.4663 131.524 45.1369 131.554 44.7252C131.585 44.2929 131.493 43.8298 131.287 43.3666C131.205 43.1608 131.091 42.9549 130.999 42.8006C130.134 41.3082 128.559 40.1245 128.498 40.0834C128.374 39.9907 128.209 40.0216 128.117 40.1348C128.024 40.2584 128.055 40.423 128.168 40.5157C128.189 40.526 129.722 41.6787 130.525 43.0785C130.608 43.2123 130.711 43.3975 130.772 43.5828C130.947 43.9842 131.019 44.365 130.999 44.7046C130.978 44.9619 130.896 45.1575 130.741 45.2913C130.546 45.456 130.237 45.528 129.836 45.4869C129.681 45.4766 129.506 45.4457 129.331 45.4045C127.839 45.034 125.997 43.7166 124.648 42.0492C124.556 41.936 124.381 41.9154 124.268 42.008C124.154 42.1007 124.134 42.2756 124.226 42.3889C125.688 44.1694 127.602 45.5177 129.228 45.9294Z" fill="#612525"/>
<path d="M136.698 48.595C137.727 48.8214 139.096 48.1009 139.281 47.998C139.415 47.926 139.456 47.7613 139.384 47.6275C139.312 47.4937 139.147 47.4525 139.014 47.5246C138.499 47.8128 137.027 48.4303 136.441 47.8848C135.607 47.1026 137.346 44.8074 138.015 44.0561C138.108 43.9531 138.108 43.7987 138.015 43.6958C137.923 43.5929 137.768 43.5723 137.655 43.6547C136.996 44.1178 135.102 45.1882 134.3 44.5089C134.166 44.3957 134.104 44.2619 134.104 44.0663C134.094 42.9033 136.296 40.7008 137.151 39.9494C137.264 39.8465 137.274 39.6818 137.171 39.5686C137.068 39.4554 136.904 39.4451 136.79 39.548C136.461 39.8362 133.538 42.4504 133.559 44.0766C133.559 44.4266 133.703 44.7148 133.95 44.9309C134.691 45.5484 135.844 45.2191 136.729 44.8074C135.977 45.8778 135.164 47.4422 136.07 48.2862C136.245 48.4406 136.461 48.5435 136.698 48.595Z" fill="#612525"/>
<path d="M134.848 39.3303C134.91 39.3406 134.972 39.3406 135.033 39.3098C135.167 39.2377 135.219 39.073 135.147 38.9392C135.116 38.8878 134.426 37.5806 132.584 36.9219C132.45 36.8705 132.285 36.9425 132.234 37.0866C132.182 37.2307 132.254 37.3851 132.399 37.4365C134.035 38.0129 134.653 39.176 134.663 39.1965C134.704 39.2686 134.776 39.32 134.848 39.3303Z" fill="#612525"/>
<path d="M133.51 39.9632C133.479 39.9838 132.11 40.9924 130.783 42.9583C130.885 43.1332 130.978 43.3185 131.05 43.4935C132.398 41.4762 133.808 40.4263 133.839 40.4161C133.963 40.3234 133.983 40.1587 133.901 40.0249C133.798 39.9014 133.633 39.8809 133.51 39.9632Z" fill="#612525"/>
<path d="M128.192 51.2892C128.192 51.4128 128.285 51.526 128.398 51.5466L128.46 51.5568C128.604 51.5466 128.727 51.423 128.717 51.279C128.707 49.1279 129.17 47.2752 129.818 45.752C129.653 45.7417 129.468 45.7108 129.283 45.6696C128.645 47.2341 128.192 49.1073 128.192 51.2892Z" fill="#612525"/>
<path d="M83.5633 104.6L83.3883 105.567L82.8119 108.881L81.7004 115.232C60.4158 123.424 42.6513 112.628 42.6513 112.628C43.0835 111.681 43.3306 110.322 43.4747 108.891C43.6805 106.823 43.6599 104.589 43.6187 103.21C43.5982 102.387 43.557 101.872 43.557 101.872L83.5633 104.6Z" fill="#9C4825"/>
<path d="M83.3995 105.57L82.8231 108.884C72.15 110.49 58.8214 110.346 43.4858 108.884C43.6917 106.816 43.6711 104.582 43.6299 103.203L83.3995 105.57Z" fill="#612525"/>
<path d="M73.8159 361.202H43.8344C38.7808 321.7 36.2695 289.3 35.3329 274.634C34.2522 257.764 27.9945 169.569 28.6738 146.453C29.1781 129.429 39.913 118.303 39.913 118.303L64.2029 122.904C64.2029 122.904 65.191 139.382 64.6969 152.896C64.2852 164.238 68.1037 298.121 73.8159 361.202Z" fill="#CEFF95"/>
<path d="M45.8238 243.235C51.0215 245.366 56.8778 245.16 61.9416 242.741C62.3842 242.536 61.9931 241.877 61.5608 242.083C56.6719 244.419 51.0317 244.543 46.0194 242.494C45.5665 242.319 45.371 243.05 45.8238 243.235Z" fill="#63636C"/>
<path d="M62.6412 115.238C65.5745 119.53 70.062 122.721 74.3641 125.438C76.4844 126.776 78.6663 128.032 80.8586 129.246C83.7919 130.862 86.6326 132.632 89.5556 134.259C91.6347 135.411 96.575 148.431 98.7776 149.327C101.382 158.765 101.814 165.115 105.149 177.919C110.284 197.536 123.829 312.8 130.19 360.721H99.2819L59.0491 134.948C58.9771 124.79 60.3872 118.655 62.6412 115.238Z" fill="#CEFF95"/>
<path d="M99.8028 241.297C104.589 243.067 109.869 242.491 114.181 239.763C114.593 239.506 114.212 238.847 113.8 239.105C109.642 241.729 104.62 242.264 100.009 240.556C99.5455 240.391 99.3499 241.122 99.8028 241.297Z" fill="#63636C"/>
<path d="M67.4954 162.114L103.212 350.272L102.464 350.414L66.7471 162.256L67.4954 162.114Z" fill="#B9E486"/>
<path d="M36.1212 125.48C36.1212 125.48 40.1249 119.171 42.6568 110.711C42.6568 110.711 57.8586 117.802 82.591 113.757C82.591 113.757 91.2881 128.002 98.7809 149.328C98.7912 149.328 41.6173 135.731 36.1212 125.48Z" fill="#CEFF95"/>
<path d="M76.7927 121.358C77.6881 133.421 86.9307 143.353 97.9126 147.521C98.3654 147.696 98.5713 146.965 98.1184 146.79C87.4659 142.745 78.4292 133.05 77.5543 121.358C77.5235 120.874 76.7618 120.874 76.7927 121.358Z" fill="#B9E486"/>
<path d="M51.3924 121.148C51.238 126.891 48.8296 132.47 44.6406 136.432C40.4517 140.385 34.7291 142.464 28.9963 142.289C28.5023 142.278 28.5126 143.03 28.9963 143.05C34.935 143.225 40.8428 141.064 45.1758 136.978C49.5089 132.892 51.9894 127.087 52.1438 121.159C52.1643 120.654 51.4027 120.654 51.3924 121.148Z" fill="#B9E486"/>
<path d="M61.7359 138.39C62.4872 147.581 63.4856 156.762 64.2369 165.953C64.2781 166.437 65.0397 166.437 64.9986 165.953C64.2472 156.762 63.2489 147.581 62.4975 138.39C62.4564 137.906 61.6947 137.906 61.7359 138.39Z" fill="#B9E486"/>
<path d="M65.4127 139.089C65.8449 141.703 66.1537 144.328 66.3081 146.963C66.3801 148.115 66.4625 149.289 66.4213 150.442C66.3698 151.759 65.6288 154.25 63.7453 153.334C63.3027 153.118 62.9219 153.776 63.3645 153.992C65.8758 155.217 67.1624 152.263 67.1829 150.246C67.2241 146.458 66.761 142.619 66.1434 138.883C66.0611 138.41 65.3303 138.616 65.4127 139.089Z" fill="#B9E486"/>
<path d="M41.3265 117.855C43.6526 120.191 47.5431 120.521 50.6205 121.076C54.5522 121.786 58.525 122.353 62.5081 122.589C70.1553 123.052 78.029 122.353 85.1204 119.327C85.5733 119.131 85.1822 118.483 84.7396 118.668C77.9261 121.581 70.3303 122.25 62.9919 121.859C59.1426 121.653 55.3241 121.138 51.5262 120.469C48.4385 119.924 44.1878 119.656 41.8514 117.32C41.5221 116.97 40.9766 117.505 41.3265 117.855Z" fill="#B9E486"/>
<path d="M32.0539 63.1699C32.0744 63.489 32.095 63.8183 32.1362 64.1477C32.1568 64.3947 32.198 64.652 32.2288 64.9093C32.7949 68.9851 34.5549 73.5857 36.2531 77.4968C36.5104 78.0732 36.7575 78.6393 37.0045 79.1848C37.797 80.9551 38.4763 83.1473 39.0424 85.5043C39.1659 86.0086 39.2791 86.5232 39.3923 87.0378C41.2552 95.7246 41.7595 105.873 41.7595 105.873C60.224 106.676 80.9013 108.827 86.4386 106.871C86.4386 106.871 86.6856 105.513 87.0458 103.516C87.6325 100.284 88.5279 95.3746 89.1866 91.9473C89.7115 89.2198 90.2673 85.4116 90.6893 81.1094C90.7099 80.8418 90.7408 80.5742 90.7613 80.3066C91.0598 77.0748 91.2862 73.596 91.3789 70.0863C91.4098 69.0159 91.42 67.9455 91.42 66.8854C91.42 65.7533 91.3892 64.6314 91.3068 63.5301C91.2965 63.2728 91.276 63.0155 91.2554 62.7685C91.0907 60.7924 90.8231 58.8986 90.432 57.1283C89.2792 51.8586 87.1281 47.7211 84.1331 46.0949C82.5892 45.2509 79.0692 45.0863 75.0244 45.2509C74.1495 45.2818 73.2541 45.3333 72.3483 45.395C72.0602 45.4156 71.772 45.4362 71.4941 45.4568C64.0939 46.0023 56.3952 47.2374 56.3952 47.2374C56.3952 47.2374 55.9424 47.4432 55.1396 47.7829C54.6352 47.999 54.0074 48.2769 53.2561 48.5959C53.0296 48.6886 52.7929 48.7915 52.5562 48.8944C51.6196 49.2855 50.5492 49.7281 49.3862 50.2016C49.1083 50.3148 48.8304 50.428 48.5525 50.5412C45.084 51.9307 40.9053 53.4951 37.0148 54.6993C35.0798 55.2963 33.8138 56.377 33.0316 57.7973C32.2082 59.2794 31.9406 61.1217 32.0539 63.1699Z" fill="#021A5A"/>
<path d="M54.8072 48.3002C54.8072 48.3002 60.1901 57.3163 68.0329 58.5823C75.8756 59.8482 72.2733 48.8045 72.2733 48.8045C72.2733 48.8045 57.0921 45.5213 54.8072 48.3002Z" fill="#9C4825"/>
<path d="M52.5291 48.8929C53.5378 51.8262 55.1228 54.5331 57.1916 56.8592C60.7836 60.9144 68.7498 66.5854 74.0504 62.3038C76.5617 60.2659 76.2221 56.7974 75.6869 53.9465C75.1105 50.9102 73.9578 48.0181 72.3419 45.4038C72.0537 45.4244 71.7655 45.445 71.4876 45.4656C73.5049 48.6253 74.8326 52.2071 75.234 55.9535C75.4604 58.0222 75.3575 60.2454 73.6284 61.676C71.9713 63.0655 69.7173 63.2198 67.6794 62.7464C60.9174 61.1511 55.483 55.0683 53.2496 48.615C53.0129 48.6871 52.7761 48.79 52.5291 48.8929Z" fill="#4F84AF"/>
<path d="M44.7901 79.3051C48.4541 81.6929 52.7666 83.0103 57.1512 82.9898C60.877 82.9692 64.5616 81.9708 67.8037 80.1594C71.2517 78.2347 73.763 75.4146 76.1611 72.3475C78.6416 69.1774 81.2146 66.0589 85.0846 64.5562C87.0813 63.7843 89.1912 63.4549 91.2908 63.5373C91.2805 63.2799 91.26 63.0226 91.2394 62.7756C89.15 62.6933 87.0504 63.0226 85.0743 63.7534C77.6947 66.4809 75.0084 74.6324 68.658 78.7493C61.5151 83.3809 52.2829 83.2677 45.1812 78.6361C44.7592 78.3788 44.3784 79.0375 44.7901 79.3051Z" fill="#4F84AF"/>
<path d="M76.3965 10.6556C77.1993 18.766 78.9181 26.794 81.3265 34.575C83.6526 42.0884 86.6374 49.4474 90.6514 56.2198C92.6378 59.5751 94.8918 62.776 97.5575 65.6373C98.5765 66.7283 96.94 68.3647 95.921 67.2738C90.8675 61.8703 87.1417 55.3141 84.126 48.5932C80.6884 40.9151 78.105 32.8459 76.3039 24.6326C75.2952 20.0217 74.5439 15.3489 74.0807 10.6556C73.9366 9.17354 76.2524 9.18384 76.3965 10.6556Z" fill="#2B2942"/>
<path d="M79.1587 19.1775C83.8314 32.5575 89.7701 45.4332 96.3263 57.9899C97.0159 59.3073 95.0192 60.4806 94.3296 59.1632C87.6807 46.4316 81.67 33.3603 76.9355 19.7847C76.4312 18.3747 78.6749 17.7674 79.1587 19.1775Z" fill="#2B2942"/>
<path d="M73.1161 11.1913C79.2401 31.2202 83.9437 51.671 87.1961 72.3586C87.4225 73.8201 85.1891 74.448 84.9626 72.9762C81.7102 52.2886 77.0066 31.8377 70.8827 11.8088C70.4504 10.3782 72.6839 9.77094 73.1161 11.1913Z" fill="#2B2942"/>
<path d="M72.2615 14.6894C76.2549 28.3576 79.1059 42.3449 80.8041 56.4866C80.9791 57.9584 78.6633 57.9481 78.4883 56.4866C76.8107 42.5507 73.97 28.7796 70.028 15.3069C69.606 13.866 71.8395 13.2588 72.2615 14.6894Z" fill="#2B2942"/>
<path d="M71.9141 19.2124C74.4769 36.1947 77.0499 53.1771 79.6127 70.1594C79.8289 71.6209 77.6057 72.2488 77.3793 70.777C74.8165 53.7946 72.2434 36.8123 69.6806 19.8299C69.4645 18.3787 71.6979 17.7406 71.9141 19.2124Z" fill="#2B2942"/>
<path d="M74.0299 9.67493C81.6359 25.1443 86.3704 41.612 90.1682 58.368C91.3518 63.5759 92.4634 68.8044 93.5853 74.0226C93.8941 75.4738 91.6606 76.1016 91.3519 74.6401C87.7084 57.6681 84.1678 40.5622 77.9306 24.3106C76.1707 19.7305 74.1945 15.2431 72.0331 10.838C71.3744 9.51025 73.3711 8.33693 74.0299 9.67493Z" fill="#2B2942"/>
<path d="M54.7272 48.2829C54.7272 48.2829 63.9388 56.0124 72.2241 48.8798L71.092 43.7439L69.8569 38.1346L68.9923 34.203L56.693 27.7702L54.7272 48.2829Z" fill="#9C4825"/>
<path d="M59.5719 34.1465C65.0577 43.7184 70.1318 46.9811 71.7374 46.6929L69.8231 38.0165L59.5719 34.1465Z" fill="#612525"/>
<path d="M52.0182 26.4456C46.8412 22.1229 46.4912 14.4036 51.0198 9.48388C52.0285 8.3826 53.665 10.0294 52.6563 11.1204C48.9202 15.1755 49.476 21.3201 53.6547 24.8092C54.8074 25.7561 53.1606 27.3925 52.0182 26.4456Z" fill="#2B2942"/>
<path d="M51.9848 24.1766C52.1701 24.5471 52.3554 24.8971 52.5406 25.2264C54.5579 28.7876 55.3093 30.2079 58.5719 33.7176C61.495 36.8567 66.0853 38.1227 68.3599 38.0815C76.635 37.9169 80.1241 34.2116 77.9936 23.1679C76.6762 16.3132 78.1994 12.2684 76.1718 9.76733C76.038 9.65411 75.8425 9.60265 75.7807 9.44826C74.0825 5.02256 68.7305 1.47171 64.7062 1.83194C64.2842 1.87311 63.8828 1.91428 63.4814 1.96574C45.9124 4.14771 48.753 17.6615 51.9848 24.1766Z" fill="#9C4825"/>
<path d="M70.3133 32.6101C71.0647 32.991 71.8983 33.1145 72.6188 32.6101C72.979 32.3528 72.5673 31.8073 72.2071 32.0543C71.6925 32.4146 71.1058 32.2396 70.5912 31.9823C70.2001 31.7765 69.9222 32.4146 70.3133 32.6101Z" fill="#612525"/>
<path d="M67.8788 27.5658L74.4041 27.4835C74.4041 27.4835 73.6631 30.8388 71.4193 31.0343C69.1653 31.2402 67.8788 27.5658 67.8788 27.5658Z" fill="white"/>
<path d="M68.5775 18.0648C69.3494 18.0546 69.6891 17.0665 69.0921 16.5827C69.051 16.5416 68.9995 16.5107 68.948 16.4695C65.9118 14.4831 61.7331 18.4765 63.5857 19.7425C64.4812 20.3497 65.7368 18.106 68.5775 18.0648Z" fill="#2B2942"/>
<path d="M73.189 17.6425C72.4995 17.7968 71.9848 17.0043 72.4068 16.4382C72.4377 16.3971 72.4789 16.3559 72.5097 16.3044C74.7741 13.8755 79.3541 16.5 77.9853 18.0336C77.3266 18.7746 75.7107 17.0558 73.189 17.6425Z" fill="#2B2942"/>
<path d="M51.9873 24.1786C52.996 24.6521 53.912 23.4787 55.3529 22.995C57.2879 22.3363 59.6243 24.6623 59.8301 23.4993C60.036 22.3363 58.9861 18.1988 59.4184 15.4404C59.8507 12.6718 63.4736 10.2634 63.4736 10.2634C63.4736 10.2634 76.2875 13.6598 74.7231 8.20491C73.8586 5.17896 68.3522 2.7088 63.4839 1.95746C45.9149 4.14973 48.7555 17.6636 51.9873 24.1786Z" fill="#612525"/>
<path d="M62.8772 25.265C62.9493 25.8619 63.9373 26.2221 65.0695 26.0781C66.2016 25.934 67.0662 25.337 66.9942 24.74C66.9221 24.1431 65.934 23.7829 64.8019 23.927C63.6594 24.0813 62.8052 24.6783 62.8772 25.265Z" fill="#612525"/>
<path d="M74.7222 24.363C74.7942 24.9599 75.7823 25.3202 76.9145 25.1761C77.4497 25.104 77.9231 24.9393 78.2628 24.7232C78.1804 24.2189 78.0981 23.7043 77.9952 23.1794C77.9952 23.1588 77.9849 23.1382 77.9849 23.1176C77.6143 23.0147 77.1409 22.9735 76.6366 23.0456C75.5044 23.1691 74.6502 23.766 74.7222 24.363Z" fill="#612525"/>
<path d="M66.469 21.1461C66.541 21.7019 66.9321 22.1136 67.3541 22.0621C67.7761 22.0106 68.054 21.5166 67.9819 20.9608C67.9099 20.405 67.5188 19.9933 67.0968 20.0448C66.6748 20.0963 66.3969 20.5903 66.469 21.1461Z" fill="#2B2942"/>
<path d="M73.2812 20.5856C73.3533 21.1414 73.7444 21.5531 74.1663 21.5017C74.5883 21.4502 74.8662 20.9562 74.7942 20.4004C74.7221 19.8446 74.331 19.4329 73.909 19.4844C73.4871 19.5358 73.2092 20.0299 73.2812 20.5856Z" fill="#2B2942"/>
<path d="M72.0994 25.6256C71.7906 25.7286 71.4304 25.8212 71.0084 25.8521C70.8129 25.8624 70.6482 25.7183 70.6276 25.533C70.6173 25.3375 70.7614 25.1728 70.9467 25.1522C71.6157 25.1007 72.0994 24.8949 72.3876 24.7199C71.2966 23.8039 70.782 22.4041 70.7614 22.3424C70.6997 22.1571 70.7923 21.9616 70.9673 21.8895C71.1422 21.8278 71.3481 21.9204 71.4201 22.0954C71.4304 22.116 72.0068 23.6701 73.1698 24.4214C73.2624 24.4832 73.3139 24.5758 73.3242 24.6787C73.3345 24.7817 73.3036 24.8846 73.2213 24.9669C73.2213 24.9875 72.8405 25.3683 72.0994 25.6256Z" fill="#2B2942"/>
<path d="M60.7263 27.3807C61.0248 25.8883 60.5616 24.3444 59.5736 23.1814C58.287 21.6787 55.9816 19.4041 54.1084 19.9084C51.3603 20.6495 51.3397 23.1814 51.9367 25.6824C52.5336 28.1835 54.6127 31.2917 58.04 30.3243C59.7486 29.8302 60.4793 28.6054 60.7263 27.3807Z" fill="#9C4825"/>
<path d="M59.251 31.5351C58.8805 32.7702 57.5734 33.4804 56.3383 33.1099C55.1032 32.7393 54.393 31.4322 54.7636 30.1971C55.1341 28.9621 56.4412 28.2519 57.6763 28.6224C58.9114 28.9929 59.6215 30.3001 59.251 31.5351Z" fill="white"/>
<path d="M56.8693 27.4984C56.9002 26.4485 56.859 25.3473 56.365 24.3901C55.9327 23.5358 54.8006 22.3419 53.689 22.8359C53.3185 23.0006 52.9994 22.4551 53.3699 22.2904C54.43 21.817 55.5519 22.3625 56.293 23.1756C57.3634 24.3592 57.5383 25.9751 57.4972 27.5086C57.4869 27.9203 56.8487 27.9101 56.8693 27.4984Z" fill="#2C2F37"/>
<path d="M51.0288 11.769C54.9708 4.31735 63.9354 0.900295 71.8296 3.91595C73.2088 4.44086 72.6118 6.68459 71.2121 6.14938C64.2442 3.49396 56.5146 6.33465 53.0255 12.9423C52.3256 14.2495 50.3289 13.0864 51.0288 11.769Z" fill="#2B2942"/>
<path d="M58.594 8.03027C61.4758 4.93227 65.7986 3.36784 69.9979 4.01625C74.0736 4.65438 77.6553 7.38185 79.4771 11.0562C80.1358 12.3839 78.1391 13.5675 77.4804 12.2295C74.1868 5.54981 65.3354 4.20152 60.2304 9.66675C59.2218 10.7577 57.5853 9.12125 58.594 8.03027Z" fill="#2B2942"/>
<path d="M59.932 10.565C61.2391 8.29043 63.5858 7.40529 65.9016 6.46869C68.4438 5.43945 71.2536 5.76881 73.8061 6.63336C75.8234 7.31266 77.4701 8.23897 78.3862 10.2357C79.4977 12.6853 79.4257 15.2583 79.436 17.8932C79.436 19.3856 77.1202 19.3856 77.1202 17.8932C77.1099 15.917 77.2643 13.8483 76.5953 11.9545C75.9777 10.1945 74.9382 9.45346 73.1885 8.8668C71.1918 8.1978 68.9481 7.77581 66.9205 8.53745C65.0885 9.22703 62.9477 9.95779 61.9287 11.7384C61.1877 13.0249 59.1909 11.8619 59.932 10.565Z" fill="#2B2942"/>
<path d="M55.2196 9.67584C57.4633 5.17809 61.8375 1.64782 66.9837 1.33905C71.6976 1.05087 77.9656 3.92243 78.2332 9.25386C78.3053 10.7462 75.9895 10.736 75.9174 9.25386C75.7013 4.94137 69.6288 3.19167 66.15 3.73717C62.136 4.37529 58.9763 7.30861 57.2163 10.8389C56.5473 12.1769 54.5506 11.0138 55.2196 9.67584Z" fill="#2B2942"/>
<path d="M52.5518 8.69928C53.5501 5.46749 56.1747 3.10025 59.2418 1.8343C61.7017 0.815357 65.3554 0.280156 67.805 1.48436C69.143 2.14307 67.9697 4.13978 66.6317 3.48107C65.5819 2.96645 64.0689 3.1723 62.947 3.29581C61.9898 3.39873 61.0327 3.58399 60.1372 3.94423C57.7391 4.922 55.5674 6.78491 54.7852 9.30653C54.3426 10.7372 52.1092 10.1299 52.5518 8.69928Z" fill="#2B2942"/>
<path d="M58.0607 4.19973C53.9026 5.49657 50.8149 10.8795 51.7412 15.1302C52.0603 16.5814 49.8268 17.1989 49.5078 15.7477C48.3138 10.231 52.0397 3.65424 57.4431 1.9663C58.8738 1.52373 59.481 3.75716 58.0607 4.19973Z" fill="#2B2942"/>
<path d="M56.463 11.7995C58.5832 5.94314 64.8101 4.36841 70.3165 3.4421C71.778 3.19509 72.4058 5.42853 70.934 5.67554C66.4157 6.43717 60.477 7.48699 58.6964 12.417C58.1921 13.8065 55.9484 13.1992 56.463 11.7995Z" fill="#2B2942"/>
<path d="M30.5265 92.2685C30.5265 92.2685 25.1436 90.5085 23.9805 82.5834C23.1057 76.6138 31.7615 84.3639 32.5746 86.1445C33.3877 87.9251 32.4305 89.7468 30.5265 92.2685Z" fill="#001039"/>
<path d="M17.7536 100.783C17.486 101.205 31.5453 119.166 37.4531 130.014C37.4531 133.225 34.0978 135.53 32.029 135.88C21.5103 125.526 -1.79159 103.84 0.843246 95.7814C3.93095 86.3227 24.5259 65.2029 24.5259 65.2029C41.3539 74.1778 41.992 78.0991 41.992 78.0991C41.992 78.0991 22.9306 92.6525 17.7536 100.783Z" fill="#9C4825"/>
<path d="M37.4436 130.018C37.4436 130.018 43.7116 131.232 44.9776 131.932C46.2435 132.632 51.3073 134.752 50.6075 135.884C49.9076 137.027 45.5333 135.534 45.5333 135.534C45.5333 135.534 41.4782 140.361 37.0216 141.051L32.0195 135.884L37.4436 130.018Z" fill="#9C4825"/>
<path d="M17.4555 100.947C15.2529 100.052 12.968 99.6094 10.5905 99.6094C10.2303 99.6094 10.2303 99.0536 10.5905 99.0536C13.0092 99.0536 15.3558 99.4961 17.5996 100.402C17.9289 100.546 17.7848 101.081 17.4555 100.947Z" fill="#612525"/>
<path d="M12.3187 95.8378C13.5023 96.8361 14.408 98.0712 15.0152 99.5019C15.149 99.8209 14.6756 100.109 14.5418 99.7798C13.9551 98.3903 13.0803 97.2067 11.9275 96.2289C11.6599 96.0025 12.0511 95.6114 12.3187 95.8378Z" fill="#612525"/>
<path d="M46.6236 77.2889L30.5264 92.2745C31.9467 89.8146 28.7973 76.5272 18.752 70.4136C18.752 70.4136 30.5573 58.2172 35.1579 55.5206C35.1579 55.5206 45.2135 60.9138 46.6236 77.2889Z" fill="#021A5A"/>
<path d="M79.5494 104.979C79.7553 105.422 80.414 105.031 80.2081 104.598C77.7997 99.4934 78.0364 93.2871 81.0109 88.4497C83.1929 84.8989 86.7129 82.3052 90.6651 81.1216C90.6857 80.854 90.7166 80.5864 90.7372 80.3188C86.4762 81.523 82.6989 84.2504 80.3522 88.0689C77.2336 93.143 77.0278 99.6272 79.5494 104.979Z" fill="#4F84AF"/>
<path d="M25.6302 63.5852C27.7195 64.4188 29.9736 64.8717 32.2173 64.8923C34.4816 64.9129 36.7562 64.5115 38.8764 63.6263C39.8748 63.2146 40.8114 62.7 41.6965 62.1031C45.7414 59.3962 48.5409 54.9705 49.3643 50.1845C49.0864 50.2978 48.8085 50.411 48.5306 50.5242C47.6455 54.9293 45.021 58.9845 41.2848 61.4855C40.3688 62.1031 39.3911 62.6177 38.3412 63.0294C36.3445 63.8116 34.2346 64.1718 32.1247 64.1307C30.1177 64.0998 28.1209 63.7087 26.2374 62.9985C26.0419 63.2043 25.836 63.3999 25.6302 63.5852Z" fill="#4F84AF"/>
<path d="M43.6823 86.2139C50.1356 86.461 56.98 86.8212 62.4143 90.7323C66.9327 93.9847 70.0203 99.0176 70.8026 104.534C70.8746 105.008 70.1439 105.224 70.0718 104.74C69.2999 99.3058 66.2534 94.3037 61.7247 91.1748C56.4448 87.5314 49.8783 87.2123 43.6823 86.9859C43.1985 86.955 43.1985 86.1934 43.6823 86.2139Z" fill="#4F84AF"/>
<path d="M42.0244 81.3945C42.2302 81.1989 42.4463 81.0239 42.6831 80.8696C44.3916 88.2595 45.1635 95.8346 44.9577 103.43C44.9474 103.914 44.1858 103.914 44.196 103.43C44.3916 96.0096 43.6608 88.6197 42.0244 81.3945Z" fill="#4F84AF"/>
<path d="M50.4145 74.3846C46.3593 77.3694 42.6643 80.7762 39.3811 84.5946C39.062 84.9651 38.4445 84.5329 38.7636 84.1623C42.088 80.3027 45.8241 76.8342 49.9307 73.8082C50.3218 73.5201 50.8159 74.0964 50.4145 74.3846Z" fill="#4F84AF"/>
<path d="M86.5477 104.175C79.2196 104.885 71.9532 104.607 64.625 104.155C57.0705 103.691 49.5056 103.444 41.9613 102.94C41.4776 102.909 41.4776 103.671 41.9613 103.702C49.5159 104.206 57.0705 104.453 64.625 104.916C71.9635 105.369 79.2196 105.647 86.5477 104.937C87.0212 104.896 87.0315 104.134 86.5477 104.175Z" fill="#4F84AF"/>
<path d="M22.6973 73.4664C22.7796 73.5487 22.862 73.6208 22.9443 73.7134C23.0884 73.8472 23.2222 73.9913 23.356 74.1354C26.5466 73.6619 29.9019 74.4544 32.4338 76.5644C35.398 79.0345 36.8801 82.9456 36.5096 86.7229L37.3227 85.9716C37.4359 82.1119 35.7788 78.2317 32.6911 75.8027C29.8607 73.559 26.1555 72.7974 22.6973 73.4664Z" fill="#4F84AF"/>
<path d="M40.7086 55.946C46.0606 59.0131 49.56 64.746 49.8688 70.9111C49.8894 71.3845 49.1586 71.4977 49.138 71.0243C48.8395 65.0341 45.4739 59.5277 40.266 56.5327C39.8543 56.296 40.2969 55.7093 40.7086 55.946Z" fill="#4F84AF"/>
</g>
<defs>
<clipPath id="clip0_110_21039">
<rect width="148.045" height="385.201" fill="white" transform="matrix(-1 0 0 1 148.674 0.800781)"/>
</clipPath>
</defs>
</svg>
