<svg width="302" height="374" viewBox="0 0 302 374" fill="none" xmlns="http://www.w3.org/2000/svg">
<g clip-path="url(#clip0_69_8244)">
<path d="M209.203 173.881C209.203 173.881 201.757 265.897 236.206 282.217C276.786 301.45 295.505 249.311 299.809 231.296C304.113 213.281 299.524 204.807 283.813 204.769C268.122 204.712 259.724 228.154 259.724 228.154C259.724 228.154 264.922 149.906 226.817 122.18L209.203 173.881Z" fill="#2B2942"/>
<path d="M246.603 285.073C248.127 279.684 252.678 275.304 258.258 274.276C263.418 273.324 269.455 274.999 273.625 278.065C274.216 278.503 274.787 277.513 274.197 277.075C269.684 273.743 262.999 271.991 257.458 273.267C251.707 274.581 247.08 279.151 245.48 284.768C245.309 285.473 246.394 285.778 246.603 285.073Z" fill="#514F6A"/>
<path d="M260.009 224.574C250.392 235.219 243.956 248.435 241.518 262.564C241.385 263.288 242.49 263.593 242.623 262.869C245.022 248.93 251.345 235.885 260.828 225.373C261.304 224.821 260.504 224.021 260.009 224.574Z" fill="#514F6A"/>
<path d="M253.534 232.496C248.221 233.544 243.688 236.876 241.118 241.637C240.775 242.284 241.746 242.856 242.108 242.208C244.564 237.695 248.811 234.591 253.838 233.601C254.562 233.468 254.257 232.363 253.534 232.496Z" fill="#514F6A"/>
<path d="M232.626 231.487L235.654 210.445C236.168 206.865 240.3 202.79 243.918 202.294L287.584 196.372C289.983 196.048 291.393 197.457 291.05 199.838L288.022 220.899C287.508 224.479 283.375 228.555 279.757 229.05L236.092 234.972C233.692 235.277 232.283 233.868 232.626 231.487Z" fill="#EABABA"/>
<path d="M232.321 233.62L235.349 212.578C235.863 208.997 239.996 204.922 243.614 204.427L287.279 198.505C289.679 198.181 291.088 199.59 290.745 201.971L287.717 223.013C287.203 226.593 283.071 230.668 279.453 231.163L235.787 237.086C233.388 237.41 231.979 236 232.321 233.62Z" fill="white"/>
<path d="M262.694 221.47C259.951 222.117 257.99 220.842 258.314 218.614C258.637 216.386 261.113 214.043 263.855 213.396C266.597 212.748 268.559 214.024 268.235 216.252C267.911 218.48 265.436 220.823 262.694 221.47Z" fill="#EABABA"/>
<path d="M283.603 206.98C282.232 207.227 281.185 206.465 281.28 205.285C281.375 204.104 282.537 202.923 283.908 202.657C285.279 202.409 286.327 203.171 286.231 204.352C286.155 205.551 284.975 206.713 283.603 206.98Z" fill="#827867"/>
<path d="M288.649 211.244C288.649 211.244 274.881 208.14 272.215 210.616C269.549 213.091 282.994 218.214 282.994 218.214C282.994 218.214 274.824 216.595 272.406 218.195C269.987 219.795 279.661 224.65 279.661 224.65C279.661 224.65 274.158 223.794 273.453 226.764C272.749 229.735 274.653 231.163 277.566 232.42C280.499 233.677 283.698 232.972 285.107 231.963C286.517 230.973 286.002 227.716 286.002 227.716C286.002 227.716 291.658 226.003 292.191 224.041C292.725 222.08 291.506 220.499 291.506 220.499C291.506 220.499 294.039 220.518 295.334 218.271C296.628 216.024 295.695 214.386 295.695 214.386C295.695 214.386 298.533 210.292 299.637 207.797C300.742 205.322 296.495 202.484 293.982 200.39C291.468 198.295 285.507 203.151 280.747 203.398C280.747 203.398 278.176 204.427 280.385 206.598C282.594 208.769 288.402 207.036 289.544 207.34C290.706 207.626 288.649 211.244 288.649 211.244Z" fill="#E97F5B"/>
<path d="M184.161 312.114C184.161 312.114 158.053 448.252 148.722 471.999C145.256 480.816 120.558 646.452 120.558 646.452L63.6191 646.033C63.6191 646.033 74.0166 479.426 77.5967 455.241C83.1192 417.802 91.1363 311.333 91.1363 311.333L184.161 312.114Z" fill="#7F4E2F"/>
<path d="M123.471 319.255C118.691 336.28 105.799 350.6 89.3079 357.037C87.9559 357.57 88.5462 359.779 89.9173 359.246C107.17 352.523 120.672 337.727 125.68 319.884C126.061 318.436 123.871 317.846 123.471 319.255Z" fill="#543425"/>
<path d="M230.893 293.794L252.069 461.182L234.72 646.241H171.707L181.267 467.904L160.738 313.979L230.893 293.794Z" fill="#7F4E2F"/>
<path d="M210.972 311.961C215.581 325.691 221.275 341.287 235.633 347.457C236.966 348.028 238.128 346.067 236.795 345.477C222.989 339.535 217.618 324.548 213.181 311.333C212.724 309.962 210.515 310.552 210.972 311.961Z" fill="#543425"/>
<path d="M184.162 634.911C184.143 634.911 184.124 634.911 184.105 634.911C183.572 634.892 183.172 634.435 183.21 633.902L192.065 462.782L169.803 329.157C169.708 328.643 170.07 328.148 170.584 328.053C171.098 327.958 171.593 328.319 171.689 328.834L193.969 462.572C193.988 462.649 193.988 462.706 193.988 462.782L185.114 633.997C185.076 634.512 184.657 634.911 184.162 634.911Z" fill="#543425"/>
<path d="M171.25 358.35C168.832 358.35 165.766 357.664 162.948 355.055C157.52 350.009 153.902 319.978 153.502 316.57C153.445 316.055 153.807 315.579 154.34 315.522C154.873 315.465 155.331 315.827 155.388 316.36C156.435 325.425 160.072 349.8 164.224 353.665C169.06 358.159 174.907 355.836 174.983 355.798C175.478 355.608 176.03 355.836 176.221 356.312C176.411 356.807 176.183 357.36 175.706 357.55C175.573 357.626 173.745 358.35 171.25 358.35Z" fill="#543425"/>
<path d="M115.436 104.946C115.436 104.946 95.8022 78.743 126.652 64.5941C157.502 50.4452 198.596 87.5028 198.92 104.946C199.282 125.551 152.588 141.928 115.436 104.946Z" fill="#2B2942"/>
<path d="M226.837 122.198C226.627 123.436 226.094 126.635 225.389 131.282C225.313 131.739 225.256 132.196 225.18 132.672C224.018 140.308 222.438 151.296 220.838 163.731C219.372 175.176 217.886 187.84 216.706 200.256C216.706 200.256 216.706 200.275 216.706 200.294C216.63 201.036 216.572 201.779 216.496 202.522C216.287 204.769 216.096 207.016 215.906 209.244C215.868 209.701 215.83 210.177 215.792 210.634C215.297 216.88 214.897 222.936 214.63 228.63C214.611 229.01 214.592 229.391 214.573 229.772C213.754 249.805 214.82 264.945 219.715 266.278L198.31 268.772L197.111 268.906L145.618 274.904L144.361 275.056L82.9288 282.217C82.9288 282.217 80.9674 267.477 80.0343 245.14C79.7296 237.485 79.5392 228.953 79.5963 219.813C79.5963 219.356 79.5963 218.918 79.6153 218.461C79.6153 217.375 79.6344 216.29 79.6534 215.185C79.7486 209.072 79.9391 202.731 80.3009 196.218C80.3199 195.819 80.339 195.419 80.377 195.019C80.6436 190.391 80.9864 185.688 81.4054 180.927V180.908C82.9288 163.788 85.5948 146.059 89.9557 129.016C90.7936 125.74 92.9454 122.408 95.9732 119.152C96.2398 118.866 96.5064 118.58 96.773 118.295C100.067 114.924 104.238 111.61 108.789 108.506C109.113 108.278 109.456 108.068 109.779 107.84C115.016 104.336 120.672 101.099 126.004 98.3185C137.906 92.0724 148.132 87.9781 148.132 87.9781C148.132 87.9781 165.366 92.9103 183.723 99.3278C188.827 101.118 194.007 103.003 198.939 104.945C199.339 105.098 199.738 105.269 200.138 105.422C215.258 111.439 227.617 117.761 226.837 122.198Z" fill="#2B2942"/>
<path d="M131.26 112.886C139.715 119.57 148.742 126.33 159.387 128.958C168.508 131.225 178.639 130.253 186.218 124.35C186.79 123.893 185.99 123.093 185.419 123.55C177.858 129.434 167.537 130.063 158.549 127.549C148.589 124.75 140.077 118.39 132.06 112.067C131.508 111.61 130.689 112.429 131.26 112.886Z" fill="#514F6A"/>
<path d="M95.7249 326.968C81.9378 318.742 79.3289 280.332 80.0145 245.141C80.224 234.61 80.7381 224.346 81.3285 215.3C82.5853 196.105 84.2039 182.242 84.2039 182.242L216.686 200.256C216.686 200.256 216.686 200.275 216.686 200.294C216.686 200.466 216.667 201.189 216.667 202.427C216.686 212.596 217.886 256.319 235.957 285.493C263.037 329.215 115.568 338.794 95.7249 326.968Z" fill="#2B2942"/>
<path d="M102.962 182.641C102.352 183.288 101.724 183.917 101.076 184.526C95.9348 189.42 89.6506 193.248 82.8713 195.457C82.0144 195.743 81.1384 195.99 80.2625 196.219C80.2815 195.819 80.3005 195.419 80.3386 195.019C81.2336 194.771 82.1096 194.505 82.9856 194.2C89.1174 192.124 94.8303 188.716 99.6101 184.336C101.553 182.546 103.362 180.603 104.961 178.528C112.178 169.197 115.13 157.238 113.074 145.621C111.169 134.824 105.152 125.036 95.9158 119.152C96.1824 118.866 96.449 118.58 96.7156 118.295C97.0964 118.542 97.4773 118.79 97.8582 119.057C107.818 125.95 113.721 137.433 114.711 149.411C115.759 161.675 111.379 173.691 102.962 182.641Z" fill="#514F6A"/>
<path d="M213.545 141.621C198.787 157.218 197.701 180.888 208.194 199.112C208.346 199.398 208.518 199.665 208.689 199.95C210.746 203.378 213.164 206.482 215.907 209.262C216.23 209.586 216.554 209.91 216.878 210.233C216.897 210.728 216.916 211.243 216.954 211.776C216.554 211.414 216.173 211.033 215.792 210.652C212.307 207.148 209.337 203.207 206.918 198.941C201.129 188.696 198.654 176.642 200.71 164.664C203.148 150.362 212.726 137.889 225.39 131.281C225.314 131.738 225.257 132.195 225.18 132.671C220.877 135.014 216.935 138.041 213.545 141.621Z" fill="#514F6A"/>
<path d="M145.619 274.904C142.972 280.236 139.545 285.225 135.717 289.681C123.72 303.678 107.191 314.818 89.233 319.636C89.0426 319.293 88.8712 318.95 88.6808 318.589C89.5377 318.36 90.4137 318.113 91.2516 317.865C109.761 312.266 127.014 299.907 138.497 284.368C140.668 281.436 142.649 278.332 144.343 275.075C146.99 269.953 148.933 264.488 149.752 258.775C151.028 249.901 149.314 240.989 144.724 233.276C135.984 218.556 118.788 209.739 101.744 211.624C94.3746 212.443 87.3478 214.995 81.1017 218.88C80.5875 219.184 80.0734 219.527 79.5782 219.851C79.5782 219.394 79.5783 218.956 79.5973 218.499C80.1305 218.156 80.6637 217.832 81.1969 217.509C89.3854 212.595 98.8117 209.853 108.485 210.253C125.415 210.939 141.601 222.06 148.228 237.656C153.56 250.129 151.408 263.307 145.619 274.904Z" fill="#514F6A"/>
<path d="M238.948 298.727C238.871 299.127 238.757 299.526 238.643 299.907C234.377 299.565 230.15 298.67 226.113 297.203C213.049 292.519 202.137 281.836 197.11 268.886C195.625 265.059 194.654 261.041 194.292 256.908C193.53 248.244 195.872 238.665 202.994 233.105C206.327 230.515 210.478 228.858 214.649 228.61C215.925 228.534 217.181 228.591 218.438 228.782C218.476 229.182 218.534 229.563 218.591 229.962C217.277 229.715 215.944 229.658 214.611 229.734C209.221 230.077 203.889 232.895 200.519 237.142C194.863 244.226 194.368 254.223 196.425 262.716C196.92 264.754 197.567 266.773 198.348 268.734C200.728 274.732 204.385 280.236 208.917 284.825C217.01 293.071 227.769 297.832 238.948 298.727Z" fill="#514F6A"/>
<path d="M214.231 319.007C213.888 319.141 213.545 319.274 213.202 319.407C211.507 316.798 209.546 314.361 207.375 312.095C195.073 299.374 174.983 293.337 157.997 299.26C149.047 302.383 142.629 309.2 140.325 318.436C139.258 322.759 139.087 327.139 139.449 331.5C139.068 331.519 138.687 331.519 138.325 331.538C137.83 325.71 138.268 319.864 140.439 314.285C147.561 296.022 170.318 293.033 186.98 298.27C198.33 301.831 207.889 309.314 214.231 319.007Z" fill="#514F6A"/>
<path d="M198.272 138.632C194.749 149.334 187.493 159.198 176.715 163.312C164.775 167.882 151.064 164.93 140.648 158.018C130.155 151.048 122.462 140.479 116.806 129.377C113.416 122.712 110.731 115.723 108.789 108.544C109.113 108.316 109.455 108.106 109.779 107.878C112.064 116.428 115.397 124.674 119.719 132.405C125.604 142.917 133.488 152.762 144.095 158.818C154.873 164.968 168.946 166.701 180.105 160.512C190.083 154.971 196.12 144.269 198.538 133.395C200.614 124.045 200.157 114.447 198.919 104.983C199.319 105.135 199.719 105.307 200.119 105.459C201.509 116.561 201.795 127.873 198.272 138.632Z" fill="#514F6A"/>
<path d="M148.627 112.906C150.74 141.737 152.34 170.701 152.34 199.627C152.34 206.883 152.226 214.119 151.807 221.355C151.769 222.098 152.911 222.079 152.949 221.355C153.768 207.625 153.559 193.838 153.216 180.089C152.816 164.912 152.112 149.754 151.217 134.615C150.779 127.378 150.302 120.123 149.788 112.887C149.731 112.182 148.589 112.182 148.627 112.906Z" fill="white"/>
<path d="M173.65 115.724C177.458 142.726 180.734 170.015 181.686 197.304C181.914 203.759 182.01 210.253 181.495 216.689C181.438 217.432 182.581 217.413 182.638 216.689C183.647 204.045 182.714 191.191 181.762 178.565C180.658 163.883 179.096 149.239 177.287 134.633C176.506 128.216 175.668 121.817 174.754 115.419C174.64 114.695 173.554 115 173.65 115.724Z" fill="white"/>
<path d="M206.004 38.1811C206.004 38.1811 211.964 44.1225 207.661 48.1025C203.338 52.0825 202.195 51.3208 200.805 55.6435C199.415 59.9663 196.806 58.7285 195.321 57.5669C193.797 56.4052 193.817 36.791 206.004 38.1811Z" fill="#021A5A"/>
<path d="M209.946 19.405C202.233 17.634 211.317 7.54125 201.91 3.73265C193.169 0.190658 191.588 7.99828 184.409 6.7224C177.249 5.44652 175.745 -1.78981 166.699 0.438217C158.168 2.53294 160.777 11.6545 152.798 15.1013C144.819 18.5671 147.028 31.5925 150.284 36.1438C150.627 36.6199 153.712 37.9529 153.807 38.2576C157.387 41.1521 158.13 43.0374 162.243 45.0559C167.29 47.5315 172.812 48.3504 178.335 48.7312C186.637 49.3216 195.092 48.617 202.995 46.0081C203.071 40.657 208.708 45.0369 215.373 37.991C222.514 30.4119 217.658 21.176 209.946 19.405Z" fill="#021A5A"/>
<path d="M140.059 94.0721C140.059 94.0721 153.103 119.228 176.164 109.326L176.983 93.7674L177.536 83.5032L177.916 76.324L153.046 62.6702C150.114 75.2576 145.658 85.5218 140.059 94.0721Z" fill="#E97F5B"/>
<path d="M155.902 74.6105C162.891 92.7013 172.851 97.9381 176.773 97.6906L177.535 83.5226L155.902 74.6105Z" fill="#B4572A"/>
<path d="M152.646 54.4433C152.36 55.5478 152.17 56.5761 152.056 57.5664C151.77 59.8706 151.884 61.9653 152.341 64.2124C152.951 67.164 154.15 70.4013 155.864 74.686C158.549 81.4082 164.91 85.4072 171.594 87.2163C189.361 92.0532 194.236 80.3799 197.702 61.6797C199.854 50.0634 204.748 44.6362 203.11 39.4565C202.977 39.2089 202.824 38.9423 202.691 38.6948C199.301 32.7724 193.627 28.4877 187.076 26.5834C185.819 26.2216 184.6 25.8979 183.42 25.6503C183.153 25.5932 182.886 25.5361 182.62 25.4789C182.505 25.4599 182.391 25.4218 182.296 25.4218C181.991 25.3647 181.706 25.3076 181.401 25.2504C181.192 25.2123 180.982 25.1743 180.773 25.1362C180.297 25.06 179.82 24.9838 179.363 24.9267C164.624 23.0414 158.759 30.7348 155.96 39.1518C154.036 44.8457 153.541 50.8823 152.646 54.4433Z" fill="#E97F5B"/>
<path d="M177.803 69.2513C180.774 69.4227 183.459 70.8128 185.249 73.1932C185.782 73.8978 187.001 73.2122 186.449 72.4886C184.335 69.6893 181.307 68.0516 177.803 67.8612C176.908 67.804 176.908 69.2132 177.803 69.2513Z" fill="#2B2942"/>
<path d="M183.308 77.6674C181.728 77.8769 180.147 77.5531 179.176 76.2011C178.681 75.5155 179.766 74.7729 180.261 75.4584C180.966 76.4296 182.109 76.4867 183.213 76.3534C184.051 76.2392 184.146 77.5531 183.308 77.6674Z" fill="#B4572A"/>
<path d="M169.617 59.006C169.407 60.0914 170.911 61.2911 172.987 61.691C175.063 62.0909 176.91 61.5577 177.119 60.4723C177.329 59.3868 175.825 58.1871 173.749 57.7872C171.673 57.3873 169.826 57.9205 169.617 59.006Z" fill="#B4572A"/>
<mask id="mask0_69_8244" style="mask-type:alpha" maskUnits="userSpaceOnUse" x="151" y="24" width="53" height="65">
<path d="M152.646 54.4433C152.36 55.5478 152.17 56.5761 152.056 57.5664C151.77 59.8706 151.884 61.9653 152.341 64.2124C152.951 67.164 154.15 70.4013 155.864 74.686C158.549 81.4082 164.91 85.4072 171.594 87.2163C189.361 92.0532 194.236 80.3799 197.702 61.6797C199.854 50.0634 204.748 44.6362 203.11 39.4565C202.977 39.2089 202.824 38.9423 202.691 38.6948C199.301 32.7724 193.627 28.4877 187.076 26.5834C185.819 26.2216 184.6 25.8979 183.42 25.6503C183.153 25.5932 182.886 25.5361 182.62 25.4789C182.505 25.4599 182.391 25.4218 182.296 25.4218C181.991 25.3647 181.706 25.3076 181.401 25.2504C181.192 25.2123 180.982 25.1743 180.773 25.1362C180.297 25.06 179.82 24.9838 179.363 24.9267C164.624 23.0414 158.759 30.7348 155.96 39.1518C154.036 44.8457 153.541 50.8823 152.646 54.4433Z" fill="#E97F5B"/>
</mask>
<g mask="url(#mask0_69_8244)">
<path d="M190.848 64.3186C190.639 65.404 192.143 66.6037 194.219 67.0036C195.19 67.1941 196.123 67.175 196.847 66.9846C196.999 66.0705 197.152 65.1184 197.285 64.1281C197.285 64.09 197.304 64.052 197.304 64.0139C196.714 63.614 195.914 63.2712 195 63.0998C192.905 62.6999 191.058 63.2522 190.848 64.3186Z" fill="#B4572A"/>
</g>
<path d="M179.252 54.8535C179.062 55.8627 179.5 56.8149 180.261 56.9672C181.023 57.1196 181.804 56.415 181.994 55.4057C182.185 54.3964 181.747 53.4443 180.985 53.2919C180.223 53.1396 179.443 53.8442 179.252 54.8535Z" fill="#2B2942"/>
<path d="M191.496 57.8433C191.306 58.8525 191.744 59.8047 192.506 59.957C193.267 60.1094 194.048 59.4048 194.239 58.3955C194.429 57.3862 193.991 56.4341 193.229 56.2817C192.468 56.1294 191.687 56.834 191.496 57.8433Z" fill="#2B2942"/>
<path d="M185.516 65.0222C184.925 65.0412 184.24 64.9651 183.478 64.7746C183.135 64.6794 182.926 64.3367 183.002 63.9939C183.097 63.6511 183.44 63.4416 183.783 63.5178C184.982 63.8225 185.953 63.7463 186.563 63.613C185.192 61.3659 185.097 58.6238 185.097 58.5095C185.078 58.1477 185.363 57.862 185.725 57.843C186.068 57.824 186.372 58.1096 186.391 58.4714C186.391 58.5095 186.506 61.5754 188.086 63.5559C188.201 63.7082 188.258 63.8987 188.22 64.0891C188.182 64.2795 188.048 64.4509 187.877 64.5271C187.839 64.5652 186.963 65.0032 185.516 65.0222Z" fill="#2B2942"/>
<path d="M191.726 53.8066C192.963 52.207 195.248 51.9595 196.753 53.3877C197.724 54.3018 199.343 52.9687 198.352 52.0356C195.839 49.6743 192.144 49.8647 189.993 52.6069C189.174 53.6733 190.907 54.873 191.726 53.8066Z" fill="#2B2942"/>
<path d="M177.272 49.3689C179.615 51.4256 182.814 51.8255 185.461 50.0545C186.565 49.3118 185.518 47.4837 184.394 48.2454C182.566 49.4832 180.414 49.3689 178.758 47.8836C177.748 46.9885 176.263 48.4739 177.272 49.3689Z" fill="#2B2942"/>
<path d="M157.788 61.0892C155.255 60.4989 153.37 59.223 152.056 57.5853C151.77 59.8895 151.884 61.9842 152.341 64.2313C154.341 63.7743 156.188 62.8031 157.788 61.0892Z" fill="#2B2942"/>
<path d="M159.977 40.0087C166.585 43.7221 164.243 56.0239 168.413 54.8623C172.584 53.7006 170.794 32.2202 180.029 35.0956C189.265 37.9711 187.666 39.4565 191.874 40.8466C199.034 43.208 199.948 39.5517 203.11 39.4565C202.976 39.2089 202.824 38.9423 202.691 38.6948C199.301 32.7724 193.626 28.4877 187.075 26.5834C185.819 26.2216 184.6 25.8979 183.419 25.6503C183.152 25.5932 182.886 25.5361 182.619 25.4789C182.505 25.4599 182.391 25.4218 182.296 25.4218C181.991 25.3647 181.705 25.3076 181.401 25.2504C181.191 25.2123 180.982 25.1743 180.772 25.1362C180.296 25.0409 179.82 24.9838 179.363 24.9267C164.624 23.0414 158.758 30.7348 155.959 39.1518C157.159 38.9423 158.53 39.1899 159.977 40.0087Z" fill="#021A5A"/>
<path d="M168.413 54.8624C164.243 56.024 166.585 43.7413 159.977 40.0088C158.53 39.19 157.159 38.9424 155.94 39.1329C154.036 44.8458 153.56 50.8824 152.645 54.4434C152.379 55.5098 152.188 56.5191 152.055 57.4903C151.179 49.4161 150.322 39.9327 150.608 36.086C150.665 35.3052 150.779 34.6006 150.932 33.9341C151.141 33.8008 151.351 33.6675 151.579 33.5342C152.531 32.982 153.521 32.563 154.569 32.2393C156.207 31.7442 157.978 31.5538 159.749 31.5538C165.538 31.5538 171.688 33.7627 175.954 35.6861C171.25 39.3804 171.822 53.9102 168.413 54.8624Z" fill="#021A5A"/>
<path d="M164.566 58.0996C166.242 55.4716 166.509 52.1962 165.48 49.2446C164.166 45.436 161.462 39.3994 157.54 38.9614C151.769 38.3329 149.865 43.1318 149.142 48.3496C148.418 53.5483 150.075 61.0131 157.292 61.6987C160.91 62.0224 163.176 60.2324 164.566 58.0996Z" fill="#E97F5B"/>
<path d="M158.149 55.5286C158.949 53.4719 159.653 51.301 159.368 49.054C159.12 47.0544 157.749 43.9123 155.216 44.0837C154.378 44.1409 154.131 42.8269 154.988 42.7698C157.425 42.5984 159.234 44.4646 160.091 46.5974C161.348 49.6824 160.548 52.9958 159.387 55.9666C159.082 56.7854 157.825 56.3284 158.149 55.5286Z" fill="#B4572A"/>
<path d="M206.481 108.049C206.462 110.258 206.176 130.12 201.32 150.858C196.617 170.91 186.581 197.132 165.558 208.196C144.229 219.432 122.349 218.841 107.743 216.385C91.8041 213.7 80.7973 208.234 80.683 208.177C79.4643 207.568 77.9789 208.063 77.3505 209.282C76.7411 210.501 77.2362 211.986 78.455 212.614C78.9311 212.843 90.1093 218.422 106.753 221.241C112.047 222.136 118.255 222.802 125.053 222.802C137.983 222.802 153.027 220.384 167.862 212.576C177.936 207.263 186.505 198.465 193.322 186.392C198.692 176.871 203.015 165.293 206.138 152.001C210.613 132.958 211.356 115.552 211.47 110.296C210.061 108.525 207.719 107.573 206.481 108.049Z" fill="#CEFF95"/>
<path d="M141.258 211.682C141.258 211.682 148.97 240.494 178.563 231.924C208.156 223.355 214.821 182.222 192.541 169.463C192.541 169.463 180.601 220.746 141.258 211.682Z" fill="#B9E486"/>
<path d="M177.459 220.289L180.887 223.564C180.887 223.564 188.809 219.394 193.17 212.881L190.104 209.853C185.781 214.348 182.696 216.69 177.459 220.289Z" fill="#CEFF95"/>
<path d="M197.873 185.668C197.035 189.572 195.207 193.781 192.541 197.913C192.179 198.484 191.798 199.055 191.398 199.627C186.18 207.053 178.316 213.985 168.699 217.889C168.166 218.117 167.614 218.327 167.061 218.517C164.052 219.622 160.872 220.422 157.559 220.841C141.258 222.935 141.258 211.643 141.258 211.643C141.258 211.643 146.19 209.7 153.046 206.044C153.369 205.873 153.712 205.701 154.036 205.511C163.538 200.388 176.316 192.219 185.076 181.612C185.324 181.307 185.571 181.003 185.819 180.679C188.599 177.175 190.922 173.424 192.541 169.425C192.541 169.463 200.92 171.615 197.873 185.668Z" fill="#CEFF95"/>
<path d="M169.746 219.374C168.832 219.184 167.937 218.898 167.061 218.536C164.128 217.356 161.462 215.356 159.139 213.3C156.835 211.243 154.569 208.844 153.045 206.063C153.369 205.892 153.712 205.72 154.035 205.53C155.502 208.196 157.711 210.519 159.939 212.481C162.452 214.709 165.404 216.861 168.679 217.889C169.117 218.022 169.574 218.156 170.032 218.251C170.755 218.422 170.45 219.527 169.746 219.374Z" fill="#B9E486"/>
<path d="M192.522 199.532C192.484 200.218 191.475 200.256 191.379 199.646C191.379 199.608 191.36 199.57 191.379 199.532C191.722 193.172 188.637 186.887 185.076 181.651C185.324 181.346 185.571 181.041 185.819 180.718C189.285 185.745 192.37 191.782 192.541 197.932C192.56 198.466 192.56 198.999 192.522 199.532Z" fill="#B9E486"/>
<path d="M222.743 149.982C220.687 164.816 218.725 179.575 218.402 194.581C217.983 213.281 218.573 231.981 222.305 250.358C224.438 260.888 227.58 271.21 231.827 281.093C232.113 281.759 233.103 281.188 232.817 280.522C225.257 262.926 221.41 243.978 220.039 224.916C218.878 208.844 219.049 192.429 220.554 176.376C221.372 167.654 222.648 158.97 223.848 150.287C223.943 149.563 222.839 149.258 222.743 149.982Z" fill="#514F6A"/>
<path d="M93.1362 122.56C93.1362 122.56 8.20447 191.324 1.349 233.047C-5.50648 274.771 32.6366 337.86 67.1235 334.566C101.61 331.271 97.0019 290.767 89.5942 282.235C82.1865 273.704 58.7445 255.404 61.9057 243.921C65.0478 232.438 89.5942 200.103 89.5942 200.103C89.5942 200.103 106.847 145.945 93.1362 122.56Z" fill="#2B2942"/>
<path d="M71.0466 309.43C71.0466 309.43 84.1672 300.422 87.9949 301.355C91.8225 302.288 117.416 308.173 120.12 311.829C122.824 315.485 102.011 313.391 102.011 313.391C102.011 313.391 120.787 320.189 118.864 323.198C116.959 326.206 96.7546 321.236 96.7546 321.236C96.7546 321.236 109.018 327.501 110.104 330.129C111.894 334.452 91.2131 327.787 91.2131 327.787C91.2131 327.787 99.4587 337.042 98.3923 339.27C97.3259 341.517 83.5198 342.05 83.5198 339.365C83.5198 336.261 88.2043 337.194 88.6995 336.642C89.2327 336.052 79.7683 333.614 75.7312 331.957C59.6208 325.426 71.0466 309.43 71.0466 309.43Z" fill="#E97F5B"/>
<path d="M61.5245 244.131C58.0206 237.37 51.7745 232.4 44.3858 230.515C43.6812 230.324 43.3765 231.429 44.0811 231.619C51.2032 233.428 57.1636 238.189 60.5343 244.702C60.877 245.368 61.8673 244.778 61.5245 244.131Z" fill="#514F6A"/>
<path d="M50.7086 228.325C52.9747 231.029 54.6124 234.076 55.6598 237.466C55.8692 238.17 56.9737 237.865 56.7643 237.161C55.6598 233.6 53.9078 230.382 51.5274 227.525C51.0323 226.954 50.2325 227.773 50.7086 228.325Z" fill="#514F6A"/>
<path d="M15.3457 203.778C21.23 219.069 14.8316 236.398 0.396997 244.13C-0.250465 244.473 0.320825 245.463 0.968286 245.12C15.8218 237.179 22.5059 219.222 16.4502 203.473C16.1836 202.788 15.0791 203.073 15.3457 203.778Z" fill="#514F6A"/>
</g>
<defs>
<clipPath id="clip0_69_8244">
<rect width="301.241" height="704" fill="white" transform="translate(0.110352)"/>
</clipPath>
</defs>
</svg>
