<svg width="165" height="316" viewBox="0 0 165 316" fill="none" xmlns="http://www.w3.org/2000/svg">
<g clip-path="url(#clip0_110_20364)">
<path d="M60.3789 12.347C60.3789 12.347 67.9911 5.61534 71.7661 5.99699C75.5412 6.37865 71.2704 15.4241 71.2704 15.4241L66.7271 20.6802L61.6296 18.7971L60.3789 12.347Z" fill="#FFDCD5"/>
<path d="M63.1381 11.8451C63.1381 11.8451 24.5622 20.527 14.8933 23.9494C-0.360164 29.3442 -10.7162 44.4813 25.2318 66.2535L40.2026 48.5516L24.0204 36.0242C33.6288 32.5153 53.4969 22.8482 63.2761 18.2817L63.1283 11.8453L63.1381 11.8451Z" fill="#FFDCD5"/>
<path d="M24.0102 36.3067C22.0191 37.5525 19.9668 38.6827 17.8432 39.6877C17.4282 39.8826 17.0435 39.2768 17.4681 39.0719C19.5916 38.0669 21.6439 36.9367 23.6351 35.6908C24.0198 35.4478 24.3947 36.0539 24.0102 36.3067Z" fill="#EABABA"/>
<path d="M22.2186 37.4069C21.5735 38.6316 20.9282 39.8466 20.283 41.0713C20.0681 41.486 19.4355 41.1298 19.6506 40.7248C20.2957 39.5001 20.9411 38.2851 21.5862 37.0604C21.8111 36.6552 22.4435 37.0017 22.2186 37.4069Z" fill="#EABABA"/>
<path d="M7.26873 58.2539C7.26873 58.2539 8.55629 60.3611 11.5137 63.3765C11.6737 63.5485 11.8533 63.72 12.0231 63.8917C15.1082 66.9432 19.8316 70.8059 26.5279 74.3306C26.7451 74.4427 26.9624 74.5548 27.1796 74.6669C29.0261 75.6197 31.0279 76.5397 33.1752 77.4173L55.5408 44.7927C55.5408 44.7927 38.4431 45.5073 26.7233 37.3755L7.26873 58.2539Z" fill="#FF70AA"/>
<path d="M11.5201 63.3682C11.6802 63.5401 11.8597 63.7116 12.0295 63.8834C13.7768 61.3649 16.2687 59.405 19.1513 58.3143C22.0244 57.2336 26.4277 56.508 28.9576 58.7526C31.9355 61.387 30.974 66.678 29.5143 69.824C28.752 71.471 27.7129 72.9585 26.5343 74.3223C26.7516 74.4344 26.9688 74.5465 27.186 74.6586C28.4025 73.2451 29.45 71.6989 30.2205 69.9835C31.4832 67.1834 32.0602 63.8429 31.0843 60.8601C30.1926 58.1486 27.8993 56.8548 25.1529 56.6544C19.8459 56.2689 14.5828 59.073 11.5201 63.3682Z" fill="#ED5F99"/>
<path d="M29.4735 39.4469C23.5049 46.7946 17.0489 53.7338 10.143 60.2054C9.80885 60.5253 9.28036 60.03 9.62427 59.7099C16.5301 53.2384 22.9862 46.2991 28.9547 38.9514C29.239 38.5839 29.758 39.0891 29.4735 39.4469Z" fill="#ED5F99"/>
<path d="M87.9969 91.9719C87.9969 91.9719 106.033 127.015 122.544 123.28C136.105 120.217 144.361 73.9829 144.361 73.9829L135.773 71.7701L122.079 97.4826L99.4204 59.1594C99.4204 59.1594 87.2596 82.8072 87.9969 91.9719Z" fill="#FFDCD5"/>
<path d="M102.644 112.024L102.671 113.233C109.49 106.354 119.398 87.4414 119.398 87.4414L116.943 83.7803L116.519 83.1461L107.576 69.7693L107.112 69.0775L99.281 57.373C91.934 76.5 102.644 112.024 102.644 112.024Z" fill="#FF70AA"/>
<path d="M106.854 81.1956C109.357 84.3678 113.253 84.5125 116.944 83.7838L116.52 83.1495C113.256 83.7709 109.886 83.6239 107.581 80.9643C104.764 77.7115 105.905 73.4312 107.578 69.7826L107.113 69.0907C105.28 72.9772 103.98 77.5539 106.854 81.1956Z" fill="#ED5F99"/>
<path d="M117.948 85.8256C113.201 93.2915 109.009 101.096 104.263 108.562C104.018 108.948 103.386 108.602 103.631 108.215C108.377 100.749 112.569 92.945 117.315 85.4791C117.57 85.083 118.202 85.4294 117.948 85.8256Z" fill="#ED5F99"/>
<path d="M135.781 71.7768L136.948 66.1005C136.948 66.1005 134.718 62.8928 135.735 60.8595C138.636 55.0751 145.364 51.8666 145.966 53.453C146.07 53.7238 149.682 61.8955 149.682 61.8955L144.359 73.9996L135.781 71.7768Z" fill="#FFDCD5"/>
<path d="M147.18 68.3551L138.746 70.3148C137.31 70.6502 136.284 69.3176 136.695 67.6591L141.688 47.5909C141.966 46.4918 142.803 45.5846 143.754 45.3579L152.188 43.3981C153.625 43.0627 154.651 44.3954 154.24 46.0538L149.256 66.1218C148.979 67.2209 148.141 68.1281 147.18 68.3551Z" fill="#63636C"/>
<path d="M148.035 68.1561L139.601 70.1159C138.165 70.4513 137.139 69.1186 137.55 67.4602L142.534 47.3923C142.811 46.2931 143.649 45.3859 144.6 45.1592L153.043 43.1992C154.48 42.8638 155.506 44.1965 155.095 45.8549L150.111 65.9228C149.834 67.022 148.986 67.9294 148.035 68.1561Z" fill="#2C2F37"/>
<path d="M149.006 56.0686C148.809 57.283 147.928 58.435 147.035 58.6409C146.142 58.8468 145.577 58.0304 145.774 56.816C145.97 55.6016 146.851 54.4495 147.744 54.2437C148.627 54.038 149.193 54.8544 149.006 56.0686Z" fill="#63636C"/>
<path d="M145.559 47.9815C145.448 48.6671 144.955 49.3126 144.45 49.4315C143.946 49.5504 143.633 49.0893 143.734 48.404C143.845 47.7184 144.338 47.0729 144.842 46.954C145.357 46.8446 145.67 47.296 145.559 47.9815Z" fill="#63636C"/>
<path d="M152.936 53.9887C152.936 53.9887 147.349 53.3169 146.388 54.4025C145.428 55.4979 150.975 56.9804 150.975 56.9804C150.975 56.9804 147.66 56.6663 146.77 57.399C145.879 58.1317 149.914 59.6588 149.914 59.6588C149.914 59.6588 147.697 59.5438 147.529 60.7478C147.372 61.9516 148.183 62.4501 149.392 62.8223C150.601 63.2044 151.85 62.7854 152.366 62.3345C152.883 61.8835 152.551 60.613 152.551 60.613C152.551 60.613 154.726 59.7044 154.854 58.9014C154.982 58.0983 154.442 57.5253 154.442 57.5253C154.442 57.5253 155.445 57.434 155.872 56.4875C156.289 55.5412 155.865 54.9265 155.865 54.9265C155.865 54.9265 156.83 53.1773 157.167 52.1548C157.505 51.1225 155.707 50.1783 154.627 49.4421C153.547 48.7156 151.372 50.8828 149.495 51.1796C149.495 51.1796 148.512 51.6998 149.476 52.468C150.44 53.2362 152.673 52.3165 153.143 52.3935C153.613 52.4706 152.936 53.9887 152.936 53.9887Z" fill="#FFDCD5"/>
<path d="M121.981 97.7749C122.061 100.817 121.935 103.864 121.605 106.887C121.564 107.239 122.12 107.226 122.161 106.874C122.491 103.842 122.616 100.805 122.537 97.7621C122.519 97.4113 121.973 97.4238 121.981 97.7749Z" fill="#EABABA"/>
<path d="M122.024 100.79C121.289 101.919 120.554 103.048 119.819 104.177C119.621 104.475 120.105 104.747 120.303 104.449C121.039 103.32 121.774 102.191 122.509 101.062C122.707 100.764 122.223 100.493 122.024 100.79Z" fill="#EABABA"/>
<path d="M36.0006 351.029C30.497 334.012 30.261 283.797 31.116 268.341C32.1415 249.691 29.4614 166.124 29.4614 166.124C29.4614 166.124 66.9593 169.136 73.7221 178.953C80.4849 188.769 69.3211 252.438 69.1745 271.546C69.0656 286.35 61.1684 332.507 56.9764 349.659L36.0006 351.029Z" fill="#7F4E2F"/>
<path d="M46.3356 170.29C46.1078 179.916 39.8133 188.364 30.6509 191.326C30.2055 191.473 30.0041 190.775 30.44 190.638C39.2925 187.781 45.3885 179.611 45.6139 170.307C45.6229 169.848 46.3443 169.822 46.3356 170.29Z" fill="#543425"/>
<path d="M44.0113 264.77C47.0052 264.701 48.8704 264.346 48.987 264.324C49.2492 264.269 49.4191 264.021 49.3643 263.759C49.3095 263.497 49.0617 263.327 48.7995 263.382C48.7607 263.392 44.5539 264.182 38.6866 263.614C38.4226 263.591 38.183 263.782 38.1598 264.046C38.1366 264.31 38.3275 264.549 38.5915 264.572C40.6448 264.759 42.4704 264.805 44.0113 264.77Z" fill="#63636C"/>
<path d="M54.5552 342.882C54.7698 342.877 54.9519 342.736 55.0055 342.52C58.8631 327.376 64.5947 274.019 64.224 267.646C63.8383 261.049 70.7978 202.102 70.8719 201.505C70.9049 201.241 70.714 201.002 70.4498 200.969C70.1856 200.936 69.946 201.127 69.9131 201.391C69.6275 203.827 62.8717 261.023 63.2592 267.698C63.6293 274.041 57.922 327.183 54.073 342.278C54.0106 342.533 54.1629 342.793 54.4183 342.865C54.4675 342.884 54.5065 342.883 54.5552 342.882Z" fill="#543425"/>
<path d="M95.2753 349.98C92.1066 326.714 90.5997 263.219 88.2245 257.936C76.4299 231.677 66.8006 168.837 66.8006 168.837C66.8006 168.837 100.673 150.789 105.509 156.171C110.346 161.554 122.934 235.537 124.404 251.983C125.562 265.011 118.632 328.212 116.556 348.272L95.2753 349.98Z" fill="#7F4E2F"/>
<path d="M96.2442 170.47C96.7427 175.181 98.4103 179.817 101.768 183.252C104.945 186.487 109.229 188.233 113.689 188.706C114.139 188.754 114.166 189.476 113.706 189.428C109.05 188.93 104.589 187.159 101.272 183.771C97.7652 180.193 96.045 175.393 95.5226 170.487C95.473 170.03 96.1947 170.013 96.2442 170.47Z" fill="#543425"/>
<path d="M71.5214 198.132C71.7847 198.126 71.9944 197.906 71.9883 197.643L71.4921 176.032C71.486 175.769 71.2665 175.559 71.0032 175.565C70.7399 175.571 70.5303 175.791 70.5364 176.054L71.0326 197.665C71.0387 197.928 71.2581 198.138 71.5214 198.132Z" fill="#543425"/>
<path d="M73.9367 188.018C74.7071 188 75.4723 187.758 76.0316 187.043C77.4534 185.225 76.4895 175.968 76.3776 174.917C76.352 174.654 76.1135 174.464 75.8506 174.49C75.5878 174.515 75.3981 174.754 75.4237 175.017C75.843 178.832 76.1675 185.313 75.2763 186.446C74.2052 187.817 71.5098 186.435 71.4898 186.415C71.2529 186.294 70.9621 186.379 70.8407 186.616C70.7193 186.853 70.804 187.144 71.041 187.265C71.1301 187.321 72.5324 188.05 73.9367 188.018Z" fill="#543425"/>
<path d="M109.9 162.011C109.9 162.011 112.916 170.586 112.503 171.718C112.09 172.849 110.34 170.138 103.352 174.328C95.0176 179.33 74.9169 185.246 61.377 181.556C47.837 177.867 33.4186 171.612 28.7967 172.596C24.1749 173.58 29.2621 164.818 29.2621 164.818C29.2621 164.818 75.3378 178.504 109.9 162.011Z" fill="white"/>
<path d="M111.415 164.237C101.831 170.107 81.1414 180.964 61.1959 174.514C29.3951 164.228 26.1461 168.908 26.1461 168.908C26.1461 168.908 28.6269 137.999 31.2445 108.374C32.2348 97.111 33.4317 60.0061 35.5201 57.47C38.8615 53.4123 48.5806 47.93 57.0594 44.0958C57.3105 43.9827 57.5518 43.8699 57.7934 43.7668C57.9286 43.7051 58.0638 43.6435 58.2087 43.5816C59.6576 42.9434 61.0589 42.355 62.3742 41.8467L76.5475 45.0729C76.5475 45.0729 77.3468 45.4643 78.6398 46.1079C78.7582 46.1637 78.8768 46.2293 79.0049 46.2849C79.1529 46.3595 79.3208 46.4435 79.4786 46.5179C85.0158 49.2789 96.685 55.2068 99.2813 57.3718C102.723 60.2492 103.203 73.0689 101.719 83.2018C100.234 93.3443 111.415 164.237 111.415 164.237Z" fill="#FF70AA"/>
<path d="M30.8625 112.824C44.3417 121.94 61.0257 122.328 76.7326 122.231C85.1228 122.184 93.8487 122.316 101.682 125.658C103.19 126.307 104.661 127.063 106.067 127.928C106.03 127.617 105.984 127.316 105.938 127.004C104.524 126.169 103.043 125.432 101.536 124.813C94.0603 121.755 85.8285 121.475 77.8572 121.493C69.1349 121.517 60.4346 121.658 51.8223 120.1C44.5229 118.784 37.1339 116.115 30.9394 111.925C30.9173 112.238 30.8851 112.531 30.8625 112.824Z" fill="#ED5F99"/>
<path d="M26.8668 160.156C30.4636 161.274 34.1514 162.106 37.8813 162.645C44.3915 163.589 53.2484 164.322 57.9374 158.613C63.0061 152.448 59.7549 143.858 55.8161 138.045C49.9177 129.331 40.3958 123.432 30.1394 121.238C30.1155 121.472 30.1016 121.717 30.0777 121.951C34.0883 122.815 37.966 124.268 41.5827 126.254C47.3636 129.429 52.4633 133.956 55.949 139.584C57.9855 142.864 59.6919 146.64 59.8112 150.56C59.9291 154.421 58.2693 158.196 54.9414 160.292C51.9692 162.156 48.3008 162.591 44.8654 162.553C41.0299 162.514 37.1818 161.929 33.4461 161.137C31.2498 160.67 29.0707 160.106 26.9282 159.433C26.9043 159.668 26.8904 159.912 26.8668 160.156Z" fill="#ED5F99"/>
<path d="M65.3239 175.601C65.5593 175.654 65.7847 175.698 66.0198 175.741C67.5536 171.15 67.6891 166.004 68.3711 161.286C68.919 157.526 69.918 153.864 72.0398 150.664C73.9167 147.84 76.4781 145.508 79.355 143.744C88.4378 138.169 98.7362 138.791 108.127 142.4C108.081 142.089 108.035 141.787 107.999 141.476C104.79 140.262 101.453 139.402 98.0197 139.032C91.4075 138.325 84.6658 139.621 78.9701 143.128C73.2069 146.676 69.4095 152.119 68.0689 158.746C66.9744 164.196 67.1434 170.281 65.3239 175.601Z" fill="#ED5F99"/>
<path d="M82.8788 175.723C83.1412 175.678 83.3939 175.633 83.6465 175.588C85.3754 168.445 90.1215 162.248 96.8909 159.185C101.082 157.283 105.779 156.59 110.318 157.13C110.284 156.887 110.249 156.643 110.204 156.381C109.059 156.251 107.907 156.209 106.746 156.236C98.6813 156.421 91.0144 160.344 86.5352 167.111C84.8001 169.737 83.5696 172.663 82.8788 175.723Z" fill="#ED5F99"/>
<path d="M32.1536 94.0135C34.6522 95.3221 37.3083 96.2661 40.1513 96.4252C43.8736 96.6325 47.7287 95.4023 50.0991 92.4012C52.479 89.3901 53.0796 85.3759 52.4967 81.662C51.8443 77.4716 49.9078 73.4473 47.6409 69.9087C45.384 66.3796 42.5795 63.2242 39.3567 60.5466C38.9987 60.2524 38.5032 60.7711 38.8612 61.0654C42.1838 63.8382 45.0688 67.0992 47.339 70.784C51.1493 76.9509 54.855 86.6328 48.8478 92.7227C44.1564 97.4749 37.6132 95.9469 32.1919 93.1344C32.1891 93.437 32.1666 93.7302 32.1536 94.0135Z" fill="#ED5F99"/>
<path d="M43.352 51.3217C44.6174 53.3124 46.0846 55.1716 47.695 56.8909C51.8057 61.2653 56.8406 64.672 62.0782 67.557C67.4144 70.4885 73.0179 73.1601 78.8913 74.8401C86.5523 77.0351 95.3667 77.1937 102.496 73.6345C102.499 73.3515 102.502 73.0685 102.506 72.7952C99.5457 74.3462 96.2398 75.271 92.8911 75.6114C81.3947 76.7828 69.8934 71.3682 60.2399 65.6868C53.9197 61.9681 47.9145 57.1005 43.9679 50.9465C43.7655 51.0585 43.5637 51.19 43.352 51.3217Z" fill="#ED5F99"/>
<path d="M86.8831 55.1107C87.4273 58.4156 89.481 61.1688 92.5752 62.493C95.6694 63.8172 98.9458 63.3029 101.444 61.6064C101.379 61.3541 101.305 61.1119 101.232 60.8697C98.6488 62.695 95.1271 63.1467 92.0138 61.4131C88.9895 59.736 87.5034 56.6283 87.4352 53.2344C87.415 52.3567 87.4831 51.4965 87.6197 50.6445C87.4022 50.5226 87.1752 50.4107 86.958 50.2986C86.6822 51.8856 86.6116 53.4874 86.8831 55.1107Z" fill="#ED5F99"/>
<path d="M31.6485 102.674C34.6606 103.825 37.941 104.335 41.1798 104.309C55.169 104.193 66.438 94.3914 78.2798 88.2944C84.3068 85.1898 90.9255 82.7839 97.7922 83.1043C99.0815 83.1625 100.383 83.318 101.657 83.5717C101.674 83.4445 101.69 83.3173 101.707 83.2096C101.724 83.0921 101.741 82.9746 101.758 82.8669C100.68 82.6575 99.5835 82.507 98.4793 82.4348C84.3866 81.4412 72.6464 91.1168 60.9762 97.4635C54.8761 100.784 48.2167 103.543 41.1635 103.597C37.9344 103.623 34.6733 103.102 31.6898 101.922C31.6859 102.176 31.6722 102.43 31.6485 102.674Z" fill="#ED5F99"/>
<path d="M80.9573 110.873C84.5312 114.392 89.9315 115.439 94.6737 116.296C97.9853 116.893 101.322 117.294 104.664 117.52C104.629 117.277 104.604 117.034 104.569 116.79C101.08 116.558 97.6066 116.121 94.1571 115.468C89.7963 114.651 84.8948 113.652 81.5725 110.469C78.1106 107.153 77.8445 101.939 80.0825 97.848C82.3862 93.6385 87.0751 91.3257 91.7072 90.79C95.1423 90.3891 98.5594 90.9059 101.851 91.8938C101.835 91.6405 101.81 91.3874 101.794 91.134C97.8161 89.9765 93.6682 89.5058 89.5621 90.4295C84.9611 91.4718 80.6744 94.3023 78.8356 98.784C77.1641 102.901 77.7326 107.688 80.9573 110.873Z" fill="#ED5F99"/>
<path d="M61.359 103.355C64.7531 102.867 68.5237 103.483 70.7359 106.34C72.6965 108.861 72.5193 112.192 70.3383 114.516C67.7951 117.218 63.8396 117.475 60.4241 116.607C57.3423 115.819 54.3539 114.005 54.2826 110.474C54.2006 106.476 57.6558 103.976 61.2617 103.367C61.7185 103.288 61.9294 103.976 61.4726 104.055C57.8279 104.675 53.9728 107.603 55.2007 111.79C56.3227 115.608 61.8513 116.721 65.2751 116.252C68.9325 115.758 72.5247 112.426 71.1168 108.478C69.6882 104.481 65.1291 103.522 61.3753 104.067C60.9183 104.136 60.9115 103.414 61.359 103.355Z" fill="#ED5F99"/>
<path d="M82.3802 55.089C80.8379 58.4614 77.2112 60.2912 73.6039 60.4131C69.1678 60.5637 65.113 58.198 61.7064 55.593C61.3389 55.3087 61.8344 54.79 62.2019 55.0743C65.3701 57.4994 69.1288 59.7158 73.2462 59.709C76.7195 59.6976 80.2518 58.0065 81.738 54.7427C81.9429 54.3185 82.5658 54.6749 82.3802 55.089Z" fill="#ED5F99"/>
<path d="M33.2726 76.7521C37.6031 77.9503 41.9497 79.0019 46.3512 79.896C46.8022 79.993 46.6329 80.6896 46.172 80.5929C41.7705 79.6987 37.4239 78.6472 33.0935 77.4489C32.6515 77.3225 32.8306 76.6256 33.2726 76.7521Z" fill="#ED5F99"/>
<path d="M69.9698 53.5767C62.0484 51.5145 59.711 46.1821 58.2075 43.592C59.6564 42.9538 61.0577 42.3654 62.373 41.8571L76.5461 45.0735C76.5461 45.0735 77.3454 45.465 78.6384 46.1085C78.7567 46.1643 78.8753 46.2299 79.0034 46.2855C79.1515 46.3602 79.3193 46.4441 79.4771 46.5186C80.478 50.1643 77.6751 55.5756 69.9698 53.5767Z" fill="white"/>
<path d="M102.005 82.659C102 92.1822 102.94 101.674 104.823 111.007C104.911 111.454 104.223 111.665 104.135 111.218C102.241 101.827 101.28 92.267 101.284 82.6854C101.283 82.217 102.005 82.2005 102.005 82.659Z" fill="#ED5F99"/>
<path d="M67.0355 19.3513C67.0355 19.3513 64.2194 20.3624 61.9409 21.8393C59.6721 23.316 60.7198 26.4532 62.7771 26.3865C62.7771 26.3865 59.7125 30.1744 60.985 31.6282C62.2576 33.0821 63.6403 31.6844 63.6403 31.6844C63.6403 31.6844 62.2701 35.326 65.4089 36.0443C68.5477 36.7625 71.2599 30.3775 71.2599 30.3775L67.0355 19.3513Z" fill="#2B2942"/>
<path d="M83.5413 26.3002C83.5413 26.3002 86.1135 27.8413 88.0498 29.7288C89.9958 31.616 88.3446 34.4933 86.3433 34.0221C86.3433 34.0221 88.6183 38.3411 87.0842 39.5179C85.5501 40.6947 84.4783 39.0606 84.4783 39.0606C84.4783 39.0606 85.1128 42.9002 81.8951 42.9936C78.6774 43.087 77.2528 36.2896 77.2528 36.2896L83.5413 26.3002Z" fill="#2B2942"/>
<path d="M60.4462 42.8967C60.4462 42.8967 65.7113 52.5037 74.7235 51.0771C76.8137 50.7461 78.343 48.9352 78.4117 46.8261L78.5427 42.3347L78.6905 37.2966L78.7949 33.7719L66.4512 27.3619C65.1689 33.5579 63.1002 38.6499 60.4462 42.8967Z" fill="#FFDCD5"/>
<path d="M67.9874 33.1641C71.614 41.9501 76.5587 44.4027 78.4772 44.2416L78.6883 37.2896L67.9874 33.1641Z" fill="#EABABA"/>
<path d="M91.1969 18.4653C91.1969 18.4653 91.2218 20.8259 90.6557 22.5172C90.0896 24.2084 87.9056 25.9759 87.9056 25.9759C87.9056 25.9759 87.5949 19.6701 91.1969 18.4653Z" fill="#021A5A"/>
<path d="M66.1765 23.3381C66.0523 23.8776 65.9665 24.3869 65.9191 24.8759C65.8084 26.0005 65.8809 27.0331 66.1305 28.1299C66.4564 29.5763 67.0876 31.1424 67.9744 33.2199C69.3666 36.4859 72.5223 38.3648 75.8196 39.1868C84.5826 41.3566 86.8405 35.5772 88.3268 26.3713C89.2495 20.6616 91.5871 17.9345 90.7292 15.4173C90.658 15.2921 90.5871 15.1766 90.5159 15.0514C88.7818 12.1933 85.9638 10.1505 82.7241 9.2882C82.096 9.12699 81.4975 8.98462 80.9192 8.87106C80.7918 8.84471 80.6546 8.81859 80.5271 8.79225C80.4684 8.78384 80.4192 8.76545 80.3704 8.76657C80.2235 8.74068 80.0765 8.71478 79.9296 8.68888C79.8219 8.67184 79.7239 8.65458 79.6164 8.64729C79.3814 8.61366 79.1465 8.58002 78.9215 8.55592C71.674 7.79541 68.8935 11.6353 67.6132 15.792C66.7415 18.6221 66.5753 21.5824 66.1765 23.3381Z" fill="#FFDCD5"/>
<path d="M79.6589 31.045C79.6818 32.0397 80.5098 32.8305 81.5045 32.8077C82.4992 32.7848 83.29 31.9568 83.2672 30.9621C83.2444 29.9674 82.4163 29.1766 81.4216 29.1994C80.4269 29.2222 79.6361 30.0503 79.6589 31.045Z" fill="white"/>
<path d="M81.0033 23.3664C80.8383 23.8288 80.425 24.1017 80.0808 23.9828C79.7365 23.8638 79.589 23.3891 79.7443 22.927C79.9093 22.4646 80.3226 22.1917 80.6668 22.3106C81.0111 22.4295 81.1683 22.904 81.0033 23.3664Z" fill="#2B2942"/>
<path d="M86.6997 24.8856C86.5347 25.348 86.1214 25.6209 85.7772 25.502C85.433 25.383 85.2855 24.9083 85.4407 24.4462C85.6057 23.9838 86.019 23.7108 86.3633 23.8298C86.7175 23.9583 86.8647 24.4232 86.6997 24.8856Z" fill="#2B2942"/>
<path d="M75.5718 24.7927C75.4657 25.2732 76.1226 25.8338 77.0544 26.0466C77.9765 26.2596 78.8202 26.0353 78.9263 25.5548C79.0323 25.0742 78.3755 24.5136 77.4436 24.3009C76.5216 24.0879 75.6778 24.3121 75.5718 24.7927Z" fill="#EABABA"/>
<path d="M87.9216 28.676C87.5637 28.8111 87.0568 28.8325 86.5271 28.7081C85.605 28.4951 84.9384 27.9347 85.0542 27.4539C85.1603 26.9734 86.004 26.7491 86.9261 26.9621C87.4361 27.0772 87.8608 27.3017 88.1301 27.5589L87.9216 28.676Z" fill="#EABABA"/>
<path d="M80.774 20.0255C80.2411 19.7646 79.4304 19.7246 79.1227 20.3464C78.9361 20.7215 78.5319 20.9649 78.1088 20.8088C77.7446 20.6708 77.4601 20.1797 77.6464 19.7949C78.3274 18.4327 79.9537 17.8685 81.3355 18.5588C81.7203 18.7451 81.954 19.1496 81.7979 19.5727C81.6501 19.9371 81.1588 20.2118 80.774 20.0255Z" fill="#2B2942"/>
<path d="M87.2206 22.7607C87.0391 22.0819 86.6877 21.6509 85.9722 21.5112C84.9726 21.3195 85.249 19.7617 86.2487 19.9534C87.4737 20.1887 88.3902 21.0068 88.711 22.2289C88.9676 23.2084 87.4774 23.75 87.2206 22.7607Z" fill="#2B2942"/>
<path d="M81.922 27.2025C81.7841 27.1472 81.7123 26.9927 81.7579 26.855C81.8031 26.6979 81.9668 26.6063 82.1142 26.6517C82.6544 26.8052 83.0928 26.7756 83.3745 26.7203C82.8224 25.6207 83.0407 24.0838 83.0585 24.0053C83.0841 23.8486 83.2279 23.738 83.3944 23.7634C83.5511 23.7891 83.6617 23.9329 83.6363 24.0994C83.6367 24.1189 83.3831 25.8225 84.0576 26.7242C84.1079 26.7913 84.1297 26.8884 84.1119 26.9668C84.0945 27.0551 84.0375 27.1247 83.9506 27.1657C83.9218 27.1859 83.1203 27.5458 81.9614 27.2211C81.9417 27.2118 81.9317 27.2023 81.922 27.2025Z" fill="#2B2942"/>
<path d="M68.7613 26.53C67.516 26.2659 66.5752 25.663 65.913 24.8683C65.8022 25.993 65.8747 27.0256 66.1243 28.1224C67.1046 27.895 68.0003 27.3866 68.7613 26.53Z" fill="#021A5A"/>
<path d="M69.6002 16.1822C72.8798 17.9315 71.8772 23.9845 73.9022 23.3623C75.9272 22.7401 74.8078 12.2378 79.3748 13.5379C83.9322 14.8481 83.1687 15.5877 85.242 16.2231C88.7792 17.2932 89.1868 15.4982 90.7265 15.4141C90.6553 15.2889 90.5844 15.1734 90.5132 15.0482C88.7791 12.1902 85.9611 10.1473 82.7214 9.285C82.0933 9.1238 81.4948 8.98143 80.9165 8.86786C80.7891 8.84152 80.6519 8.8154 80.5244 8.78905C80.4657 8.78064 80.4165 8.76226 80.3677 8.76338C80.2208 8.73748 80.0738 8.71158 79.9269 8.68569C79.8192 8.66865 79.7212 8.65138 79.6137 8.64409C79.3787 8.61046 79.1438 8.57683 78.9188 8.55272C71.6713 7.79222 68.8908 11.6321 67.6105 15.7888C68.2131 15.6872 68.8792 15.7987 69.6002 16.1822Z" fill="#2C2F37"/>
<path d="M73.8995 23.35C71.8745 23.9721 72.8771 17.9192 69.5975 16.1699C68.8764 15.7864 68.2104 15.6748 67.608 15.7862C66.7361 18.6066 66.5701 21.5766 66.1713 23.3323C66.0469 23.862 65.9703 24.3517 65.9228 24.8309C65.4028 20.8814 64.8766 16.2392 64.9699 14.354C64.9904 13.973 65.0409 13.6205 65.1115 13.2969C65.2172 13.2262 65.3132 13.1557 65.4191 13.0947C65.8809 12.8109 66.3638 12.5949 66.8674 12.4272C67.6712 12.1648 68.5271 12.0476 69.3951 12.0277C72.2329 11.9625 75.2712 12.9758 77.3798 13.8738C75.1198 15.7308 75.5661 22.8433 73.8995 23.35Z" fill="#2B2942"/>
<path d="M92.1665 14.0116L65.3114 12.1695C65.4794 8.43836 68.2026 5.5072 71.9801 3.86906C72.3183 3.72469 72.6664 3.58985 73.0246 3.46454C74.128 3.07818 75.312 2.79731 76.5376 2.63256C76.7612 2.59815 76.9948 2.57327 77.2284 2.54839C78.3286 2.44507 79.4503 2.42907 80.5842 2.52012C80.7797 2.53514 80.985 2.54994 81.1807 2.57472C82.384 2.71296 83.5898 2.95847 84.7697 3.35094C85.0842 3.45105 85.3892 3.56113 85.6749 3.68141C86.0098 3.82008 86.3353 3.96872 86.6314 4.11804C92.7928 7.294 92.1665 14.0116 92.1665 14.0116Z" fill="#CEFF95"/>
<path d="M73.028 3.46924C71.0442 5.8858 69.7572 8.90107 69.4365 11.9332C69.396 12.2951 68.8102 12.2793 68.841 11.9176C69.1461 9.06146 70.2524 6.24549 71.9835 3.87376C72.3219 3.73914 72.6698 3.59455 73.028 3.46924Z" fill="#B9E486"/>
<path d="M75.6969 11.2049C75.744 11.555 75.1617 11.6953 75.1244 11.3449C74.7649 8.4357 75.2693 5.33107 76.5342 2.62855C76.7578 2.59414 76.9914 2.56926 77.225 2.54438C75.9005 5.19949 75.3478 8.32474 75.6969 11.2049Z" fill="#B9E486"/>
<path d="M81.3263 11.3826C81.3541 11.743 80.7585 11.7274 80.7307 11.367C80.5068 8.41573 80.8973 5.45032 80.5761 2.51102C80.7716 2.52604 80.9769 2.54084 81.1726 2.56562C81.4643 5.49585 81.0928 8.4413 81.3263 11.3826Z" fill="#B9E486"/>
<path d="M88.0893 13.0426C88.0194 13.3954 87.4497 13.2329 87.5197 12.88C88.1615 9.81126 87.4381 6.3543 85.6595 3.68263C85.9944 3.8213 86.3198 3.96994 86.616 4.11926C88.1608 6.80605 88.7048 10.1013 88.0893 13.0426Z" fill="#B9E486"/>
<path d="M65.3044 11.9206C64.5996 12.2491 63.491 17.0848 64.8101 17.5912C64.8101 17.5912 75.1105 14.4763 81.6784 15.3792C88.2462 16.2822 90.7703 19.5514 91.686 19.0621C93.5657 18.0627 92.9707 13.3929 92.3669 12.5969C92.3672 12.6066 77.1967 6.3201 65.3044 11.9206Z" fill="#B9E486"/>
<path d="M81.2871 35.3067C80.5666 35.3721 79.8604 35.2126 79.446 34.5879C79.2338 34.2708 79.734 33.9569 79.9462 34.274C80.249 34.7159 80.7673 34.7625 81.2637 34.7121C81.6338 34.6841 81.6668 35.2687 81.2871 35.3067Z" fill="#EABABA"/>
<path d="M72.0577 24.9849C72.8571 23.6786 72.9469 22.0666 72.4067 20.635C71.72 18.7773 70.3259 15.8529 68.3998 15.6825C65.5648 15.4451 64.6825 17.8169 64.3804 20.3802C64.0878 22.9336 64.9814 26.5817 68.529 26.832C70.3077 26.9571 71.409 26.0536 72.0577 24.9849Z" fill="#FFDCD5"/>
<path d="M65.4892 25.9593C65.504 26.6029 66.0427 27.1174 66.6864 27.1026C67.33 27.0879 67.8445 26.5492 67.8297 25.9055C67.8149 25.2619 67.2762 24.7474 66.6326 24.7621C65.9794 24.7869 65.4745 25.3156 65.4892 25.9593Z" fill="white"/>
<path d="M68.8727 23.7876C69.2495 22.7739 69.5662 21.6933 69.3948 20.6045C69.2457 19.6322 68.5471 18.1066 67.3106 18.2228C66.9017 18.2614 66.7602 17.6207 67.1788 17.5818C68.3666 17.4667 69.2751 18.3631 69.7281 19.3967C70.3772 20.8941 70.0245 22.5317 69.4825 23.998C69.3454 24.4012 68.7259 24.191 68.8727 23.7876Z" fill="#2B2942"/>
<path d="M88.369 30.4061C90.6315 30.3541 92.4228 28.4786 92.3709 26.2161C92.3189 23.9537 90.4434 22.1624 88.1809 22.2143C85.9184 22.2663 84.1271 24.1418 84.1791 26.4043C84.2311 28.6667 86.1163 30.4578 88.369 30.4061ZM88.1948 22.819C90.1257 22.7746 91.7221 24.3089 91.7662 26.23C91.8106 28.1609 90.2763 29.7573 88.3551 29.8015C86.434 29.8456 84.8278 28.3115 84.7837 26.3904C84.7396 24.4692 86.2736 22.8631 88.1948 22.819Z" fill="white"/>
<path d="M78.9879 27.8125C81.2504 27.7606 83.0416 25.8851 82.9897 23.6226C82.9377 21.3601 81.0622 19.5688 78.7998 19.6208C76.5373 19.6728 74.746 21.5482 74.7979 23.8107C74.8499 26.0732 76.7351 27.8643 78.9879 27.8125ZM78.8136 20.2254C80.7446 20.1811 82.3409 21.7153 82.3851 23.6365C82.4294 25.5674 80.8951 27.1638 78.974 27.2079C77.0528 27.252 75.4467 25.718 75.4026 23.7968C75.3584 21.8757 76.8827 20.2698 78.8136 20.2254Z" fill="white"/>
<path d="M84.5677 24.7554C84.2515 24.1577 83.6222 23.9477 83.0039 24.2156C82.685 24.3498 82.5266 23.8265 82.8458 23.7021C83.6768 23.3513 84.6018 23.691 85.0298 24.4813C85.1927 24.78 84.7309 25.0639 84.5677 24.7554Z" fill="white"/>
<path d="M75.1314 21.7901C74.4839 20.3609 73.2888 19.3053 71.7762 18.8717C71.4421 18.772 71.5766 18.2518 71.9106 18.3514C73.5508 18.8212 74.894 19.9514 75.5934 21.516C75.7369 21.8152 75.2751 22.099 75.1314 21.7901Z" fill="white"/>
<path d="M98.7252 344.659C98.9982 344.653 99.2076 344.424 99.1918 344.161C99.1632 343.342 95.9065 261.856 96.1104 257.138C96.3213 252.304 77.9318 200.164 77.1491 197.947C77.0652 197.696 76.789 197.565 76.5375 197.659C76.2857 197.743 76.1555 198.019 76.2491 198.271C82.8553 216.989 95.3216 253.38 95.1533 257.102C94.9408 261.868 98.101 340.849 98.2368 344.212C98.2426 344.465 98.4618 344.665 98.7252 344.659Z" fill="#543425"/>
<path d="M118.218 255.696C121.212 255.627 123.077 255.272 123.193 255.25C123.456 255.195 123.626 254.947 123.571 254.685C123.516 254.423 123.268 254.253 123.006 254.308C122.967 254.318 118.76 255.108 112.893 254.54C112.629 254.517 112.39 254.708 112.366 254.971C112.343 255.235 112.534 255.475 112.798 255.498C114.851 255.685 116.687 255.731 118.218 255.696Z" fill="#63636C"/>
</g>
<defs>
<clipPath id="clip0_110_20364">
<rect width="156.006" height="373.574" fill="white" transform="matrix(-0.999736 0.022958 0.022958 0.999736 156.024 0.689453)"/>
</clipPath>
</defs>
</svg>
