<svg width="76" height="82" viewBox="0 0 76 82" fill="none" xmlns="http://www.w3.org/2000/svg">
<rect x="22.7751" width="55.8996" height="55.8996" rx="15" transform="rotate(19.9076 22.7751 0)" fill="white"/>
<g clip-path="url(#clip0_69_8208)">
<path fill-rule="evenodd" clip-rule="evenodd" d="M45.2019 28.2799C54.7571 25.2798 61.6698 37.9233 47.3732 44.7285C41.5893 47.4821 34.1488 49.0739 31.7646 47.6599C29.358 46.2322 27.0802 39.1828 26.5076 32.8577C25.006 16.3202 40.0117 16.2827 41.7406 26.532C42.1716 29.1206 42.1945 29.2244 45.2019 28.2799Z" fill="#FF70AA"/>
<path fill-rule="evenodd" clip-rule="evenodd" d="M55.436 33.6939C56.0419 37.211 53.9674 41.5887 47.3731 44.7285C41.5893 47.4821 34.1488 49.0739 31.7646 47.6599C29.9239 46.5664 28.1532 42.1837 27.172 37.351C29.6294 40.915 33.3318 42.6041 37.9195 42.8498C45.435 43.2514 54.2046 39.7196 55.436 33.6939Z" fill="#FF70AA"/>
</g>
<path d="M27.4847 71.2477C26.8958 71.7434 25.9911 71.4158 25.8562 70.6579L23.6402 58.2078C23.5053 57.4499 24.2414 56.8302 24.9652 57.0923L36.8553 61.3983C37.5791 61.6604 37.7477 62.6078 37.1588 63.1035L27.4847 71.2477Z" fill="white"/>
<defs>
<clipPath id="clip0_69_8208">
<rect width="31.0034" height="28.5231" fill="white" transform="translate(29.7421 16.9455) rotate(19.9076)"/>
</clipPath>
</defs>
</svg>
