<svg width="87" height="84" viewBox="0 0 87 84" fill="none" xmlns="http://www.w3.org/2000/svg">
<rect width="72" height="55.9998" rx="15" transform="matrix(-0.969223 0.246185 0.246185 0.969223 70.4338 0.482716)" fill="white"/>
<g clip-path="url(#clip0_69_8929)">
<path d="M49.3481 27.7666C48.2278 23.356 43.6872 20.6892 39.2268 21.8222C34.7664 22.9551 32.0494 27.4654 33.1697 31.876C34.29 36.2866 38.8299 38.953 43.2903 37.82C47.7507 36.6871 50.4684 32.1772 49.3481 27.7666ZM36.1591 51.8114C38.1682 52.0959 41.6126 52.1688 46.6129 50.8987C51.6127 49.6288 54.6053 47.9208 56.2351 46.7121C57.6198 45.6848 58.0361 43.8375 57.2247 42.3198C55.4923 39.0799 52.3259 36.723 48.7024 35.945C47.4326 37.4591 45.69 38.6075 43.6242 39.1322C41.5584 39.6569 39.4795 39.4797 37.6411 38.7551C34.8277 41.1687 33.1698 44.7504 33.194 48.4242C33.2047 50.1447 34.4514 51.569 36.1591 51.8114Z" fill="#4F84AF"/>
</g>
<path d="M50.9721 72.889C51.5093 73.4404 52.4419 73.2035 52.6509 72.4626L56.083 60.2916C56.292 59.5507 55.6205 58.8615 54.8744 59.051L42.6179 62.1642C41.8717 62.3537 41.6106 63.2798 42.1478 63.8312L50.9721 72.889Z" fill="white"/>
<defs>
<clipPath id="clip0_69_8929">
<rect width="25" height="30" fill="white" transform="matrix(-0.969223 0.246185 0.246185 0.969223 51.342 18.7449)"/>
</clipPath>
</defs>
</svg>
