<svg width="206" height="364" viewBox="0 0 206 364" fill="none" xmlns="http://www.w3.org/2000/svg">
<path d="M168.85 286.934C168.85 286.934 206.953 432.574 205.188 489.939C203.423 547.304 152.986 734.004 152.986 734.004L131.563 735.747C131.563 735.747 141.403 507.082 138.755 479.724C137.498 466.596 88.6493 304.607 88.6493 304.607L168.85 286.934Z" fill="#F6A8B5"/>
<path d="M163.731 265.554C163.731 265.554 190.45 351.932 198.9 411.106L120.729 428.956L81.2138 294.59L163.731 265.554Z" fill="#021A5A"/>
<path d="M112.588 334.657C118.634 361.309 126.135 387.587 135.049 413.423C135.336 414.239 134.056 414.57 133.769 413.776C124.855 387.94 117.376 361.64 111.308 335.01C111.132 334.171 112.39 333.818 112.588 334.657Z" fill="#4F84AF"/>
<path d="M109.874 321.706C118.744 382.159 101.336 443.849 92.003 496.139C89.6643 509.178 35.8296 740.888 35.8296 740.888L16.3697 737.556C16.3697 737.556 3.46262 537.243 24.5552 482.327C34.3072 456.954 34.3955 302.091 34.3955 302.091L109.874 321.706Z" fill="#F6A8B5"/>
<path d="M123.179 286.934L108.992 429.86C108.992 429.86 40.6615 424.345 23.6727 420.373C23.6727 420.373 19.6572 326.913 35.6752 286.934C51.6932 246.955 123.179 286.934 123.179 286.934Z" fill="#021A5A"/>
<path d="M47.6554 291.347C44.015 321.904 41.9851 352.639 41.6101 383.395C41.4997 392.11 41.5439 400.803 41.6983 409.518C41.7204 410.379 40.3966 410.379 40.3745 409.518C39.8229 378.762 40.904 347.983 43.6399 317.337C44.4121 308.666 45.3167 299.995 46.3537 291.369C46.4199 290.53 47.7437 290.508 47.6554 291.347Z" fill="#4F84AF"/>
<path d="M143.08 116.075C143.08 116.075 162.848 134.101 160.885 150.494C158.921 166.887 186.037 190.693 194.421 223.766C202.805 256.839 159.34 277.248 142.043 250.154C118.17 212.735 143.08 116.075 143.08 116.075Z" fill="#CEFF95"/>
<path d="M95.5115 -0.000539682C89.1131 -0.0887932 82.803 1.85278 77.7504 5.78007C70.5798 11.3621 62.6591 22.5262 63.8064 43.9939C66.5422 94.8058 38.6762 129.026 38.6762 129.026L135.887 125.474C135.887 125.474 124.304 94.4087 132.688 48.4507C136.307 28.6157 141.558 0.573108 95.5115 -0.000539682Z" fill="#FF70AA"/>
<path d="M116.317 68.2634C116.317 71.8597 119.229 74.7721 122.826 74.7721C126.422 74.7721 129.334 71.8597 129.334 68.2634C129.334 64.667 126.422 61.7547 122.826 61.7547C119.229 61.7326 116.317 64.645 116.317 68.2634Z" fill="white"/>
<path d="M60.3198 221.428C60.3198 221.428 58.9519 242.256 57.2751 258.825C57.2751 258.825 107.271 288.787 157.244 249.868L147.382 222.09L60.3198 221.428Z" fill="#CEFF95"/>
<path d="M39.2054 178.448C47.6116 196.981 56.0619 216.486 57.2753 230.43C57.7828 236.254 69.8735 238.24 85.1414 237.953C112.654 237.424 150.405 229.437 148.794 223.105C146.103 212.47 144.558 202.696 143.786 193.694C140.543 156.23 150.405 132.468 144.271 118.171C141.403 111.508 129.445 105.021 119.141 100.498C110.492 96.7034 102.991 94.2764 102.991 94.2764L75.6321 92.7982C75.6321 92.7982 35.6973 112.06 27.2912 124.592C18.1128 138.293 27.909 153.561 39.2054 178.448Z" fill="#CEFF95"/>
<path d="M147.757 127.107C147.999 138.822 150.934 150.251 156.383 160.621C156.781 161.371 155.633 162.033 155.236 161.283C149.676 150.714 146.654 139.043 146.411 127.107C146.411 126.246 147.735 126.246 147.757 127.107Z" fill="#B9E486"/>
<path d="M120.773 134.3C106.057 138.734 89.8404 136.484 76.9113 128.188C76.2052 127.725 76.8672 126.577 77.5732 127.041C90.2376 135.16 106.035 137.366 120.42 133.02C121.259 132.777 121.59 134.057 120.773 134.3Z" fill="#B9E486"/>
<path d="M143.278 199.629C126.113 206.027 107.271 207.042 89.5096 202.563C88.6491 202.343 89.0242 201.019 89.8847 201.24C107.425 205.674 125.98 204.637 142.925 198.305C143.741 197.996 144.094 199.32 143.278 199.629Z" fill="#B9E486"/>
<path d="M46.2652 169.667C57.341 187.693 64.2027 208.035 66.387 229.084C66.4753 229.966 65.1074 229.944 65.0191 229.084C62.8569 208.3 56.0172 188.178 45.0959 170.373C44.6105 169.601 45.8019 168.917 46.2652 169.667Z" fill="#B9E486"/>
<path d="M144.271 133.924C144.271 133.924 142.859 143.742 154.332 156.98C168.188 172.976 147.58 190.451 143.102 195.503C138.623 200.556 144.271 133.924 144.271 133.924Z" fill="#CEFF95"/>
<path d="M120.354 100.631C120.354 100.631 128.628 137.565 127.216 143.522C126.091 148.243 86.1342 151.685 81.2361 146.522C76.2057 141.227 63.6957 98.4022 63.6957 98.4022C63.6957 98.4022 52.9067 98.4022 44.986 109.456C48.825 105.507 69.5646 161.68 63.6957 201.791C60.8495 221.339 49.2663 257.545 49.2663 257.545C85.5605 257.943 120.796 252.868 154.972 242.344C154.972 242.344 146.301 223.524 145.838 211.609C145.374 199.717 141.756 206.667 148.882 194.643C156.009 182.618 167.173 175.403 156.075 159.209C144.977 143.014 134.232 130.46 134.96 107.978C130.901 103.852 126.4 101.712 120.354 100.631Z" fill="#021A5A"/>
<path d="M69.3215 118.436C63.6292 117.796 58.0913 119.804 54.164 123.974C53.5683 124.592 52.6416 123.665 53.2373 123.048C57.4073 118.657 63.3203 116.473 69.3436 117.135C70.16 117.201 70.1599 118.525 69.3215 118.436Z" fill="#4F84AF"/>
<path d="M135.048 117.973C131.54 116.715 127.988 116.782 124.524 118.149C123.73 118.458 123.377 117.179 124.171 116.87C127.834 115.436 131.695 115.369 135.401 116.693C136.196 116.98 135.865 118.26 135.048 117.973Z" fill="#4F84AF"/>
<path d="M143.83 164.946C123.134 170.55 101.556 172.403 80.2209 170.396C79.3825 170.307 79.3825 168.984 80.2209 169.072C101.468 171.057 122.892 169.226 143.477 163.666C144.293 163.446 144.646 164.725 143.83 164.946Z" fill="#4F84AF"/>
<path d="M80.5296 169.91C79.6029 179.464 79.4926 189.083 80.2869 198.637C80.4855 200.997 80.7282 203.358 81.037 205.697C81.3459 208.014 81.7431 210.617 83.795 212.051C85.6483 213.353 88.1194 213.353 90.3037 213.463C92.7527 213.618 95.2017 213.706 97.6508 213.75C107.535 213.949 117.442 213.375 127.238 212.029C131.121 211.5 135.291 211.058 138.865 209.337C143.322 207.153 144.866 203.005 145.087 198.262C145.617 187.274 144.491 176 142.748 165.166C142.616 164.328 143.896 163.975 144.028 164.813C145.771 175.58 146.786 186.612 146.433 197.533C146.301 201.417 145.661 205.52 142.682 208.322C139.99 210.86 136.218 211.875 132.665 212.515C122.009 214.456 111.043 215.184 100.21 215.118C95.4665 215.096 90.1492 215.427 85.5159 214.258C81.7651 213.309 80.3531 210.264 79.8015 206.69C77.9482 194.577 77.9703 182.067 79.1617 169.888C79.272 169.072 80.5958 169.072 80.5296 169.91Z" fill="#4F84AF"/>
<path d="M68.6595 154.863C68.6595 157.841 71.0865 160.268 74.0651 160.268C77.0436 160.268 79.4706 157.841 79.4706 154.863C79.4706 151.884 77.0436 149.457 74.0651 149.457C71.0644 149.457 68.6595 151.884 68.6595 154.863Z" fill="#4F84AF"/>
<path d="M131.695 148.244C131.695 151.222 134.122 153.649 137.1 153.649C140.079 153.649 142.506 151.222 142.506 148.244C142.506 145.265 140.079 142.838 137.1 142.838C134.099 142.838 131.695 145.265 131.695 148.244Z" fill="#4F84AF"/>
<path d="M73.7351 97.2547C73.7351 97.2547 90.9225 113.184 109.434 100.785L108.397 90.1062L107.271 78.4567L106.477 70.2933L83.1342 54.2753L73.7351 97.2547Z" fill="#FFDCD5"/>
<path d="M87.4144 67.8883C96.1957 88.5838 105.661 96.4383 108.992 96.2398L107.249 78.4346L87.4144 67.8883Z" fill="#EABABA"/>
<path d="M112.324 97.6738C112.324 97.6738 111.42 86.7524 108.993 86.1567C106.566 85.5831 101.668 90.6135 93.9015 89.0029C86.1131 87.3923 79.0749 80.3761 75.6772 82.0529C72.2794 83.7297 71.0659 98.8432 71.0659 98.8432C71.0659 98.8432 81.9873 111.199 96.6374 109.831C111.265 108.463 112.324 97.6738 112.324 97.6738Z" fill="#CEFF95"/>
<path d="M112.103 103.675C104.8 107.537 96.4604 109.213 88.2308 108.287C81.9648 107.603 74.0219 105.661 71.4185 99.1745C71.1096 98.3803 72.3893 98.0493 72.6981 98.8215C75.3016 105.308 84.3697 106.831 90.4812 107.161C97.7621 107.559 104.999 105.948 111.441 102.528C112.192 102.153 112.876 103.278 112.103 103.675Z" fill="#B9E486"/>
<path d="M75.8309 48.0751C77.4856 56.2826 79.5376 59.1288 84.8107 67.4026C89.5102 74.7938 98.2694 79.0741 102.881 79.8243C119.605 82.5822 127.989 76.4265 127.834 53.4144C127.724 39.1394 132.313 31.5496 129.18 25.791C128.96 25.5263 128.739 25.2615 128.518 24.9968C123.135 18.7528 115.413 14.9579 107.205 14.1857C66.3216 10.3467 73.4701 36.2932 75.8309 48.0751Z" fill="#FFDCD5"/>
<path d="M104.976 45.6486C106.764 45.4721 108.396 46.5311 109.08 48.1638C109.61 49.3773 111.485 48.5389 110.956 47.3034C109.897 44.8102 107.337 43.354 104.668 43.6188C103.344 43.7511 103.675 45.781 104.976 45.6486Z" fill="#2B2942"/>
<path d="M123.642 47.4135C122.186 47.1487 120.774 47.8989 120.09 49.1786C119.583 50.1494 118.104 49.311 118.612 48.3402C119.671 46.3765 121.877 45.3616 124.062 45.7808C125.143 45.9573 124.723 47.6121 123.642 47.4135Z" fill="#2B2942"/>
<path d="M114.53 70.4478C112.809 70.9111 111.022 70.8228 109.742 69.477C109.102 68.793 110.183 67.8222 110.823 68.5062C111.728 69.477 113.03 69.3446 114.199 69.0357C115.126 68.7709 115.435 70.2051 114.53 70.4478Z" fill="#EABABA"/>
<path d="M96.6146 52.0026C96.5484 53.2161 98.3796 54.3192 100.718 54.4516C103.057 54.584 105.021 53.7015 105.087 52.488C105.153 51.2745 103.322 50.1713 100.983 50.0389C98.6444 49.9066 96.6807 50.7891 96.6146 52.0026Z" fill="#EABABA"/>
<path d="M120.796 54.606C120.73 55.8194 122.561 56.9226 124.9 57.055C126.003 57.1212 127.018 56.9447 127.79 56.6358C127.812 55.5988 127.834 54.5398 127.834 53.4366C127.834 53.3925 127.834 53.3483 127.834 53.3042C127.128 52.9512 126.179 52.7085 125.165 52.6423C122.804 52.5099 120.862 53.3925 120.796 54.606Z" fill="#EABABA"/>
<path d="M77.7504 15.9292C91.4076 7.39065 115.567 2.22782 130.835 20.9817C135.887 28.7039 129.026 43.5525 129.313 38.3235C129.974 25.9901 123.775 19.1504 120.796 22.3717C120.796 22.3717 98.3576 42.8686 84.9651 40.5078C84.9651 40.5078 81.4129 50.3701 73.5142 52.6868C69.3222 40.8387 70.3371 26.1666 77.7504 15.9292Z" fill="#FF70AA"/>
<path d="M107.978 40.3313C106.367 39.6032 104.139 39.7576 103.322 41.5889C102.55 43.2878 99.7702 42.3611 100.542 40.6622C101.999 37.463 105.683 36.1392 108.904 37.5734C110.603 38.3235 109.699 41.1035 107.978 40.3313Z" fill="#2B2942"/>
<path d="M124.657 43.4203C123.62 41.9641 122.319 39.8902 120.267 40.2873C118.413 40.6403 117.796 37.7721 119.649 37.4411C122.936 36.8234 125.077 39.0518 126.842 41.5008C127.923 42.9791 125.761 44.9427 124.657 43.4203Z" fill="#2B2942"/>
<path d="M120.73 59.9896C120.73 59.9896 115.126 60.6515 105.396 57.4964C105.396 57.4964 105.683 66.7189 113.14 67.094C119.472 67.425 120.73 59.9896 120.73 59.9896Z" fill="white"/>
<path d="M91.4957 55.445C92.6651 52.5547 92.3121 49.2672 90.7456 46.5534C88.7157 43.0454 84.9429 37.6178 80.9715 37.9267C75.1688 38.39 74.176 43.4646 74.4407 48.7377C74.7055 53.9888 77.7282 61.027 84.987 60.3431C88.6275 60.0121 90.547 57.8058 91.4957 55.445Z" fill="#FFDCD5"/>
<path d="M72.676 60.3871C72.676 63.9835 75.5883 66.8958 79.1847 66.8958C82.781 66.8958 85.6934 63.9835 85.6934 60.3871C85.6934 56.7908 82.781 53.8784 79.1847 53.8784C75.5883 53.8784 72.676 56.7908 72.676 60.3871Z" fill="white"/>
<path d="M83.9504 54.0107C84.3917 51.8926 84.7226 49.6863 84.1049 47.5682C83.5533 45.6707 81.722 42.8687 79.3171 43.4423C78.5008 43.6409 78.0595 42.4053 78.8758 42.2068C81.1925 41.6552 83.2444 43.1555 84.4137 45.0971C86.1126 47.8771 85.87 51.2086 85.2301 54.2754C85.0536 55.0918 83.7739 54.827 83.9504 54.0107Z" fill="#EABABA"/>
<path d="M114.575 55.8859C115.634 55.8638 117.663 55.2901 117.84 53.2383C118.016 51.3629 116.494 50.3921 115.369 50.0391L114.685 47.6121C114.575 47.237 114.199 47.0384 113.846 47.1267C113.471 47.237 113.273 47.6121 113.361 47.9651L114.133 50.7892C114.199 51.0319 114.42 51.2305 114.663 51.2746C114.729 51.2967 116.56 51.6718 116.428 53.1059C116.318 54.4517 114.597 54.4959 114.508 54.4959C114.133 54.4959 113.824 54.8268 113.846 55.2019C113.891 55.599 114.199 55.8859 114.575 55.8859Z" fill="#2B2942"/>
<path d="M153.008 237.975C153.008 237.975 110.955 259.332 57.2531 245.918C57.2531 245.918 25.9673 281.329 36.4474 308.732C50.7886 346.262 153.803 321.132 166.312 307.408C178.844 293.685 153.008 237.975 153.008 237.975Z" fill="#021A5A"/>
<path d="M124.039 271.291C121.061 305.665 118.06 340.018 115.082 374.393C114.221 384.189 113.383 393.985 112.522 403.781C112.456 404.62 111.132 404.642 111.198 403.781C114.177 369.406 117.178 335.054 120.156 300.679C121.017 290.883 121.855 281.087 122.716 271.291C122.782 270.452 124.106 270.43 124.039 271.291Z" fill="#4F84AF"/>
<path d="M120.752 294.567C116.957 296.332 113.802 293.133 112.765 289.669C111.066 284.043 111.132 277.623 111.838 271.842C111.948 271.004 113.272 271.004 113.162 271.842C112.632 276.078 112.588 280.336 113.14 284.573C113.559 287.794 114.905 295.825 120.09 293.42C120.862 293.067 121.524 294.214 120.752 294.567Z" fill="#4F84AF"/>
<path d="M151.575 239.718C119.296 256.994 79.6479 258.869 45.8689 244.748C44.9422 244.351 44.2361 245.741 45.1628 246.138C71.7933 257.28 102.042 258.715 129.688 250.441C137.586 248.08 145.198 244.903 152.457 241.02C153.318 240.534 152.435 239.233 151.575 239.718Z" fill="#4F84AF"/>
<path d="M139.418 233.452C141.227 236.696 142.33 240.16 142.749 243.844C142.86 244.837 144.426 244.749 144.316 243.756C143.874 239.785 142.683 236.056 140.719 232.57C140.212 231.709 138.91 232.57 139.418 233.452Z" fill="#4F84AF"/>
<path d="M64.2258 235.901C62.4387 240.424 61.3797 245.102 61.0708 249.955C61.0046 250.948 62.5711 250.86 62.6373 249.867C62.9241 245.3 63.939 240.865 65.6158 236.607C65.9909 235.68 64.6009 234.952 64.2258 235.901Z" fill="#4F84AF"/>
<path d="M92.6431 240.468C91.4076 244.793 91.0104 249.139 91.4296 253.618C91.5179 254.611 93.0844 254.545 92.9961 253.53C92.5769 249.205 92.9741 244.969 94.1655 240.799C94.4523 239.828 92.9299 239.497 92.6431 240.468Z" fill="#4F84AF"/>
<path d="M65.395 262.731C61.0927 275.373 53.9662 291.347 38.3232 291.656C37.3083 291.678 37.3966 293.244 38.4115 293.222C54.8046 292.913 62.3724 276.366 66.9174 263.084C67.2484 262.113 65.7039 261.782 65.395 262.731Z" fill="#4F84AF"/>
<path d="M142.969 258.428C147.625 267.496 155.81 274.225 165.562 277.116C166.533 277.402 166.842 275.88 165.893 275.593C156.494 272.813 148.728 266.282 144.271 257.567C143.808 256.685 142.506 257.545 142.969 258.428Z" fill="#4F84AF"/>
<path d="M3.68291 245.918C7.43369 257.479 14.6043 266.459 26.9377 270.078C34.4393 272.284 43.8824 272.527 55.6422 270.166C100.74 261.098 128.782 238.615 129.466 221.45C130.15 204.263 129.863 196.96 110.337 199.541C91.4952 202.034 47.6994 221.185 47.6994 221.185C36.425 212.272 57.2528 173.153 57.2528 173.153C57.2528 173.153 55.6422 130.791 32.255 119.186C32.255 119.186 13.9424 136.329 5.33767 176.75C0.880859 197.776 -2.8699 225.752 3.68291 245.918Z" fill="#CEFF95"/>
<path d="M108.992 200.645C106.631 208.08 104.932 216.067 107.094 223.745C109.014 230.54 114.132 236.277 121.303 237.402C122.141 237.535 121.788 238.814 120.95 238.682C113.89 237.579 108.55 232.129 106.256 225.554C103.365 217.28 105.108 208.411 107.69 200.314C107.955 199.475 109.234 199.828 108.992 200.645Z" fill="#B9E486"/>
<path d="M107.932 228.952C95.7969 236.784 82.4265 242.476 68.3722 245.72C60.9147 247.441 53.3028 248.522 45.6689 249.029C38.3439 249.515 30.4231 250.088 23.3628 247.661C8.53624 242.565 9.57323 224.958 9.97038 212.117C10.4558 196.342 12.8165 180.589 17.2954 165.453C22.3259 148.442 30.0701 132.27 40.6164 117.973C41.1239 117.289 42.2712 117.951 41.7637 118.635C23.6717 143.147 14.0962 172.977 11.7796 203.204C11.228 210.529 11.0073 217.92 11.3383 225.245C11.6692 232.614 13.2578 240.601 20.0754 244.683C26.2752 248.389 34.0415 248.213 41.0356 247.948C48.824 247.639 56.5903 246.801 64.2242 245.256C79.5803 242.19 94.1422 236.277 107.292 227.782C107.976 227.363 108.638 228.488 107.932 228.952Z" fill="#B9E486"/>
<path d="M3.68304 245.918C7.43381 257.479 14.6044 266.459 26.9379 270.077C26.3422 251.213 11.5155 246.889 3.68304 245.918Z" fill="#B9E486"/>
<path d="M60.2531 167.196C55.4653 176.639 51.4939 186.457 48.405 196.584C48.1623 197.401 46.8827 197.048 47.1254 196.231C50.2363 185.994 54.2518 176.065 59.1058 166.512C59.5029 165.762 60.6281 166.424 60.2531 167.196Z" fill="#B9E486"/>
<path d="M47.302 221.759C40.0211 225.554 33.8433 231.07 29.2982 237.909C28.8349 238.615 27.6876 237.954 28.1509 237.248C32.8284 230.209 39.1385 224.517 46.6401 220.634C47.3902 220.215 48.0521 221.362 47.302 221.759Z" fill="#B9E486"/>
<path d="M26.6287 226.502C31.3282 224.075 36.4469 222.906 41.7421 223.083C42.6026 223.105 42.6026 224.428 41.7421 224.406C36.6896 224.23 31.8136 225.311 27.3127 227.65C26.5404 228.047 25.8785 226.9 26.6287 226.502Z" fill="#B9E486"/>
<path d="M118.236 217.214L121.832 192.856C122.45 188.708 127.26 184.009 131.43 183.457L182.043 176.794C184.823 176.419 186.456 178.073 186.037 180.809L182.44 205.189C181.823 209.337 177.013 214.037 172.843 214.588L122.229 221.252C119.449 221.627 117.817 219.972 118.236 217.214Z" fill="#514F6A"/>
<path d="M117.861 219.685L121.457 195.305C122.075 191.157 126.885 186.458 131.055 185.906L181.668 179.243C184.448 178.868 186.081 180.522 185.661 183.258L182.065 207.638C181.447 211.786 176.638 216.486 172.468 217.037L121.854 223.701C119.074 224.076 117.464 222.443 117.861 219.685Z" fill="#2B2942"/>
<path d="M153.118 205.741C149.941 206.491 147.668 204.991 148.065 202.409C148.441 199.828 151.331 197.136 154.508 196.386C157.685 195.636 159.958 197.136 159.561 199.717C159.163 202.299 156.295 204.991 153.118 205.741Z" fill="#514F6A"/>
<path d="M177.41 189.039C175.821 189.326 174.608 188.443 174.718 187.053C174.828 185.663 176.196 184.317 177.785 184.031C179.374 183.744 180.587 184.626 180.477 186.016C180.366 187.406 178.998 188.752 177.41 189.039Z" fill="#827867"/>
<path d="M183.212 194.003C183.212 194.003 167.283 190.341 164.172 193.209C161.061 196.055 176.616 202.056 176.616 202.056C176.616 202.056 167.15 200.137 164.348 201.968C161.546 203.799 172.732 209.469 172.732 209.469C172.732 209.469 166.356 208.455 165.518 211.896C164.679 215.338 166.886 217.015 170.261 218.471C173.637 219.927 177.366 219.133 178.998 217.986C180.631 216.839 180.057 213.066 180.057 213.066C180.057 213.066 186.61 211.102 187.228 208.83C187.846 206.557 186.456 204.726 186.456 204.726C186.456 204.726 189.39 204.77 190.891 202.166C192.391 199.585 191.332 197.666 191.332 197.666C191.332 197.666 194.641 192.922 195.921 190.054C197.201 187.185 192.303 183.898 189.412 181.449C186.522 179.022 179.594 184.626 174.078 184.891C174.078 184.891 171.078 186.082 173.637 188.598C176.196 191.113 182.926 189.149 184.249 189.502C185.617 189.833 183.212 194.003 183.212 194.003Z" fill="#FFDCD5"/>
<path d="M123.023 200.423C123.023 200.423 138.865 204.483 140.299 208.432C141.755 212.404 125.186 210.595 125.186 210.595C125.186 210.595 134.474 213.22 136.129 216.155C137.784 219.067 125.23 218.979 125.23 218.979C125.23 218.979 131.363 220.987 130.525 224.428C129.687 227.87 126.973 228.356 123.288 228.091C119.604 227.848 116.669 225.421 115.743 223.656C114.816 221.891 117.066 218.802 117.066 218.802C117.066 218.802 112.124 214.059 112.632 211.764C113.117 209.469 115.213 208.477 115.213 208.477C115.213 208.477 112.588 207.153 112.433 204.174C112.279 201.174 114.11 199.96 114.11 199.96C114.11 199.96 113.338 194.224 113.514 191.091C113.691 187.958 119.56 187.274 123.244 186.435C126.929 185.597 130.525 193.76 135.313 196.518C135.313 196.518 137.431 198.945 133.989 200.026C130.569 201.107 125.495 196.253 124.149 195.967C122.803 195.614 123.023 200.423 123.023 200.423Z" fill="#FFDCD5"/>
</svg>
