<svg width="343" height="376" viewBox="0 0 343 376" fill="none" xmlns="http://www.w3.org/2000/svg">
<path d="M262.019 233.779C259.517 244.312 254.613 266.254 243.174 279.594C237.217 286.543 229.512 291.163 219.425 290.625C214.818 290.386 209.694 289.052 204.035 286.344C168.629 269.519 176.294 174.703 176.294 174.703L189.36 118.454C211.958 148.042 228.222 230.633 228.222 230.633C228.222 230.633 236.84 206.481 252.984 206.54C269.109 206.58 266.428 215.222 262.019 233.779Z" fill="#FF70AA"/>
<path d="M243.18 279.594C237.222 286.543 229.518 291.162 219.43 290.625C223.719 277.603 236.726 278.339 243.18 279.594Z" fill="#ED5F99"/>
<path d="M237.378 230.294C244.288 234.973 252.926 235.968 260.711 233.021C261.644 232.663 262.041 234.156 261.128 234.515C252.986 237.601 243.812 236.526 236.603 231.647C235.789 231.07 236.564 229.736 237.378 230.294Z" fill="#ED5F99"/>
<path d="M228.48 226.927C218.591 237.898 211.979 251.517 209.477 266.072C209.358 266.809 210.489 267.128 210.609 266.391C213.071 252.015 219.564 238.575 229.315 227.764C229.811 227.186 228.997 226.35 228.48 226.927Z" fill="#ED5F99"/>
<path d="M221.852 235.087C216.391 236.162 211.744 239.607 209.083 244.505C208.726 245.162 209.738 245.76 210.096 245.103C212.618 240.443 216.987 237.238 222.15 236.222C222.904 236.083 222.586 234.948 221.852 235.087Z" fill="#7576A6"/>
<path d="M142.575 317.147C142.575 317.147 115.727 457.44 106.156 481.931C102.601 491.03 77.2032 661.708 77.2032 661.708L18.6826 661.27C18.6826 661.27 29.3661 489.576 33.0397 464.648C38.719 426.08 46.96 316.35 46.96 316.35L142.575 317.147Z" fill="#021A5A"/>
<path d="M80.2087 324.495C75.3039 342.036 62.0389 356.79 45.0805 363.421C43.6904 363.958 44.2862 366.248 45.6961 365.691C63.429 358.762 77.3095 343.51 82.4526 325.112C82.8895 323.678 80.6257 323.041 80.2087 324.495Z" fill="#4F84AF"/>
<path d="M190.614 298.265L212.398 470.754L194.566 661.463H129.79L139.62 477.683L118.511 319.072L190.614 298.265Z" fill="#021A5A"/>
<path d="M170.16 316.982C174.886 331.119 180.744 347.207 195.499 353.559C196.869 354.156 198.06 352.125 196.69 351.528C182.492 345.396 176.991 329.945 172.424 316.345C171.947 314.912 169.684 315.529 170.16 316.982Z" fill="#4F84AF"/>
<path d="M142.595 649.798C142.576 649.798 142.556 649.798 142.536 649.798C142 649.778 141.583 649.3 141.603 648.763L150.717 472.43L127.841 334.725C127.762 334.188 128.119 333.69 128.635 333.59C129.172 333.491 129.668 333.869 129.767 334.387L152.663 472.211C152.683 472.291 152.683 472.351 152.683 472.43L143.568 648.882C143.529 649.38 143.112 649.798 142.595 649.798Z" fill="#4F84AF"/>
<path d="M47.2397 336.178C53.9715 338.03 79.151 336.756 131.953 344.123C142.298 345.576 151.334 345.975 159.118 345.656C159.714 345.636 160.289 345.616 160.865 345.576C188.765 344.023 199.965 333.072 198.396 328.453C198.099 325.506 194.584 307.467 190.87 287.715C190.771 287.137 190.652 286.56 190.553 286.003C188.944 277.54 187.336 268.819 185.946 260.915C185.846 260.357 185.747 259.819 185.648 259.262C183.324 246.101 181.676 235.448 181.795 232.302C181.815 231.904 181.835 231.526 181.855 231.128C182.093 225.572 182.49 219.659 182.967 213.586C182.987 213.447 182.987 213.287 183.007 213.148C183.027 212.969 183.046 212.77 183.046 212.59C183.086 212.113 183.126 211.635 183.166 211.157C183.364 208.867 183.563 206.557 183.781 204.228C183.861 203.471 183.92 202.695 184 201.938C184 201.918 184 201.898 184 201.898C185.211 189.095 186.74 176.034 188.249 164.246C189.897 151.424 189.619 148.517 189.46 140.811C189.441 140.313 189.361 127.928 189.361 127.451C189.441 121.099 188.845 118.451 189.361 118.451C189.877 118.451 182.014 111.781 166.942 104.135C166.545 103.936 166.128 103.796 165.711 103.637C160.647 101.646 155.305 99.6946 150.083 97.8628C134.911 92.5465 120.495 88.2258 115.431 86.7325C97.4201 101.009 74.0873 107.241 57.4267 123.429C56.9501 123.887 56.3345 123.767 55.9572 123.409C54.9246 125.101 54.1502 126.794 53.7332 128.466C49.2453 146.028 46.5248 164.306 44.9362 181.947V181.967C44.4993 186.865 44.1618 191.724 43.8838 196.482C43.8639 196.9 43.8441 197.319 43.8043 197.717C43.4469 204.427 43.2285 210.958 43.149 217.25C43.1292 218.385 43.1093 219.519 43.1093 220.634C43.1093 221.092 43.0895 221.57 43.0895 222.028C43.0299 231.446 43.2285 240.247 43.5462 248.132C44.0228 259.62 44.7575 269.178 45.3731 275.848C45.3532 275.848 33.5776 332.415 47.2397 336.178Z" fill="#FF70AA"/>
<path d="M153.518 123.007C142.815 127.467 130.285 126.989 120.098 121.335C111.043 116.317 104.39 107.616 101.61 97.6802C101.352 96.7245 102.822 96.3064 103.1 97.2621C105.761 106.839 112.175 115.182 120.872 120.001C130.742 125.476 142.775 125.834 153.121 121.514C154.015 121.135 154.412 122.629 153.518 123.007Z" fill="#ED5F99"/>
<path d="M94.4793 102.783C98.5104 119.17 111.239 131.077 124.305 140.793C137.034 150.291 150.955 158.395 161.757 170.262C167.536 176.593 172.123 183.881 174.565 192.144C174.843 193.1 173.374 193.498 173.076 192.562C168.29 176.414 155.264 164.905 142.118 155.308C129.29 145.95 115.449 137.647 104.964 125.501C99.3841 119.01 95.0552 111.564 92.99 103.201C92.7517 102.225 94.241 101.807 94.4793 102.783Z" fill="#ED5F99"/>
<path d="M181.593 213.702C175.716 202.99 167.911 193.452 158.578 185.607C153.793 181.585 148.61 178.041 143.129 175.015C138.185 172.287 132.148 169.101 126.27 170.236C118.525 171.749 119.002 180.112 121.305 185.886C123.629 191.68 127.104 197.176 130.4 202.432C137.072 213.065 144.797 223.02 153.435 232.12C163.225 242.454 174.186 251.633 186.022 259.497C186.836 260.035 186.081 261.369 185.247 260.832C162.252 245.56 142.653 225.33 128.176 201.795C124.761 196.22 120.928 190.326 119.002 184.034C117.533 179.256 117.592 173.521 122.06 170.356C126.528 167.19 132.763 168.603 137.43 170.515C143.328 172.924 148.928 176.448 154.071 180.192C165.946 188.833 175.815 200.043 182.884 212.945C183.4 213.782 182.07 214.558 181.593 213.702Z" fill="#ED5F99"/>
<path d="M106.275 205.679C111.518 215.316 117.455 224.535 124.088 233.256C135.625 248.428 149.128 262.047 164.22 273.655C171.746 279.449 179.927 285.761 189.479 287.493C189.936 287.573 190.412 287.653 190.869 287.712C190.77 287.135 190.65 286.558 190.551 286C187.354 285.542 184.197 284.527 181.377 283.153C173.057 279.131 165.57 272.998 158.521 267.104C151.769 261.45 145.355 255.377 139.338 248.946C126.947 235.685 116.303 220.851 107.626 204.902C107.149 204.026 105.818 204.803 106.275 205.679Z" fill="#ED5F99"/>
<path d="M112.948 244.309C124.703 248.71 133.421 259.701 134.453 272.324C135.506 285.525 128.337 298.567 116.423 304.361C109.75 307.607 102.224 308.562 94.9565 307.069C93.9835 306.87 94.4005 305.377 95.3735 305.576C111.518 308.881 127.761 298.985 131.971 282.957C136.002 267.526 127.404 251.358 112.55 245.783C111.617 245.444 112.014 243.951 112.948 244.309Z" fill="#ED5F99"/>
<path d="M156.833 338.348C157.25 340.956 158.024 343.385 159.117 345.655C159.712 345.635 160.288 345.615 160.864 345.576C158.441 340.956 157.389 335.66 158.322 329.866C159.494 322.678 164.002 316.306 171.051 313.957C177.584 311.787 185.15 313.081 189.817 318.337C190.472 319.074 191.564 317.979 190.909 317.242C186.639 312.444 180.126 310.691 173.911 311.667C161.301 313.678 154.927 326.421 156.833 338.348Z" fill="#ED5F99"/>
<path d="M119.025 64.0937C119.025 64.0937 110.009 57.2443 111.082 45.7158C112.154 34.1873 113.385 27.4773 113.385 27.4773C113.385 27.4773 108.242 9.73651 113.385 6.15252C118.528 2.56853 120.534 9.49758 120.534 9.49758C120.534 9.49758 127.723 -1.90735e-06 134.395 -1.90735e-06C141.067 -1.90735e-06 139.002 5.65474 139.002 5.65474C139.002 5.65474 158.462 -0.51769 165.909 5.91359C173.336 12.3449 162.99 14.1369 162.99 14.1369C162.99 14.1369 182.828 10.7918 185.389 18.4974C187.951 26.203 176.93 26.9795 176.93 26.9795C176.93 26.9795 186.918 35.9594 183.086 42.9084C179.233 49.8573 172.581 47.249 172.581 47.249C172.581 47.249 174.11 57.5629 169.364 57.4235C164.638 57.2842 157.35 48.9016 157.35 48.9016L119.025 64.0937Z" fill="#CEFF95"/>
<path d="M105.204 92.4461C105.204 92.4461 119.105 118.251 142.795 108.036L143.152 92.1275L143.708 81.5547L144.105 74.1478L118.549 60.0706C115.55 73.0527 110.963 83.6454 105.204 92.4461Z" fill="#EDB29B"/>
<path d="M121.485 72.3746C128.653 91.0114 138.9 96.4272 142.931 96.1882L143.705 81.5536L121.485 72.3746Z" fill="#D7947A"/>
<path d="M118.151 51.6108C117.873 52.7458 117.655 53.8011 117.536 54.8364C117.238 57.2059 117.357 59.3563 117.834 61.6859C118.449 64.7322 119.7 68.0574 121.467 72.4777C124.228 79.4067 130.761 83.5084 137.632 85.3999C155.881 90.3777 160.885 78.3514 164.459 59.0775C166.664 47.1109 171.707 41.5159 170.02 36.1798C169.881 35.9209 169.742 35.6621 169.583 35.4032C166.088 29.3104 160.269 24.8902 153.538 22.919C152.247 22.5407 150.996 22.2221 149.785 21.9633C149.507 21.9035 149.229 21.8438 148.97 21.7841C148.851 21.7641 148.752 21.7243 148.633 21.7243C148.335 21.6646 148.017 21.6049 147.719 21.5451C147.501 21.5053 147.282 21.4655 147.064 21.4257C146.568 21.346 146.091 21.2664 145.614 21.2066C130.463 19.2553 124.446 27.1999 121.567 35.8612C119.561 41.715 119.065 47.9273 118.151 51.6108Z" fill="#EDB29B"/>
<path d="M149.231 52.3887C148.873 53.3444 148 53.9019 147.265 53.6431C146.55 53.3643 146.252 52.3687 146.61 51.413C146.967 50.4573 147.841 49.8998 148.576 50.1586C149.29 50.4175 149.588 51.413 149.231 52.3887Z" fill="#2B2942"/>
<path d="M161.081 55.8479C160.724 56.8037 159.85 57.3612 159.115 57.1023C158.401 56.8236 158.103 55.828 158.46 54.8723C158.818 53.9166 159.691 53.359 160.426 53.6179C161.161 53.8966 161.459 54.8922 161.081 55.8479Z" fill="#2B2942"/>
<path d="M137.776 55.1456C137.518 56.1611 138.888 57.3757 140.814 57.8535C142.74 58.3314 144.507 57.9133 144.766 56.9177C145.024 55.9023 143.654 54.6877 141.727 54.2098C139.801 53.712 138.034 54.1302 137.776 55.1456Z" fill="#D7947A"/>
<path d="M163.484 63.9021C162.729 64.1609 161.677 64.1808 160.565 63.9021C158.639 63.4242 157.269 62.2096 157.527 61.1942C157.785 60.1787 159.552 59.7606 161.478 60.2583C162.531 60.5172 163.424 61.015 163.98 61.5725L163.484 63.9021Z" fill="#D7947A"/>
<path d="M149.698 46.5717C148.666 45.8549 147.017 45.5164 146.163 46.7111C145.647 47.4478 144.734 47.8062 143.9 47.3283C143.185 46.9102 142.748 45.7952 143.284 45.0585C145.131 42.4501 148.666 41.793 151.326 43.6647C152.061 44.1824 152.419 45.0983 151.942 45.9345C151.545 46.6713 150.433 47.0894 149.698 46.5717Z" fill="#2B2942"/>
<path d="M162.826 51.2897C162.171 49.9556 161.277 49.2189 159.748 49.2388C157.623 49.2587 157.544 45.9336 159.669 45.9137C162.29 45.8938 164.494 47.2079 165.646 49.5773C166.579 51.4888 163.759 53.2211 162.826 51.2897Z" fill="#2B2942"/>
<mask id="mask0_69_8521" style="mask-type:alpha" maskUnits="userSpaceOnUse" x="110" y="-1" width="76" height="66">
<path d="M119.025 64.0936C119.025 64.0936 110.009 57.2442 111.082 45.7156C112.154 34.1871 113.385 27.4771 113.385 27.4771C113.385 27.4771 108.242 9.73633 113.385 6.15233C118.528 2.56834 120.534 9.49739 120.534 9.49739C120.534 9.49739 127.723 -0.000188828 134.395 -0.000188828C141.067 -0.000188828 139.002 5.65456 139.002 5.65456C139.002 5.65456 158.462 -0.517877 165.909 5.9134C173.336 12.3447 162.99 14.1367 162.99 14.1367C162.99 14.1367 182.828 10.7916 185.389 18.4972C187.951 26.2028 176.93 26.9793 176.93 26.9793C176.93 26.9793 186.918 35.9592 183.086 42.9082C179.233 49.8571 172.581 47.2488 172.581 47.2488C172.581 47.2488 174.11 57.5627 169.364 57.4234C164.638 57.284 157.35 48.9014 157.35 48.9014L119.025 64.0936Z" fill="#CEFF95"/>
</mask>
<g mask="url(#mask0_69_8521)">
<path d="M123.438 59.4342C120.836 58.8169 118.37 57.2122 117 55.4998C116.702 57.8692 115.523 61.6702 116 63.9998C118.045 63.5618 121.789 61.2063 123.438 59.4342Z" fill="#CEFF95"/>
</g>
<path d="M125.677 36.7378C132.469 40.5806 130.066 53.2441 134.355 52.0494C138.644 50.8547 136.797 28.7136 146.289 31.6804C155.781 34.6471 154.133 36.1803 158.462 37.594C165.81 40.0231 166.763 36.2599 170 36.1604C169.861 35.9015 169.722 35.6427 169.563 35.3838C166.068 29.291 160.249 24.8708 153.518 22.8996C152.227 22.5213 150.976 22.2027 149.765 21.9438C149.487 21.8841 149.209 21.8244 148.95 21.7646C148.831 21.7447 148.732 21.7049 148.613 21.7049C148.315 21.6452 147.997 21.5854 147.699 21.5257C147.481 21.4859 147.262 21.4461 147.044 21.4062C146.548 21.3266 146.071 21.247 145.594 21.1872C130.443 19.2359 124.426 27.1805 121.547 35.8418C122.778 35.6427 124.188 35.9015 125.677 36.7378Z" fill="#CEFF95"/>
<path d="M134.356 52.0487C130.067 53.2433 132.489 40.5799 125.678 36.737C124.189 35.9008 122.799 35.6419 121.528 35.8211C119.562 41.7148 119.065 47.9271 118.152 51.6106C117.874 52.7057 117.675 53.7411 117.556 54.7367C116.663 46.4138 115.769 36.6375 116.067 32.6752C116.126 31.8787 116.246 31.142 116.405 30.4651C116.623 30.3257 116.841 30.1863 117.06 30.0469C118.033 29.4695 119.065 29.0315 120.138 28.7129C121.826 28.2151 123.633 27.9961 125.46 27.9961C131.417 27.9961 137.732 30.2659 142.1 32.257C137.255 36.08 137.851 51.0531 134.356 52.0487Z" fill="#CEFF95"/>
<path d="M155.763 66.6267C155.763 66.6267 151.593 65.0736 143.372 62.067C143.372 62.067 141.644 71.3257 147.8 72.8389C153.003 74.1133 155.763 66.6267 155.763 66.6267Z" fill="white"/>
<path d="M147.776 76.6481C146.267 76.7675 144.798 76.3892 143.944 75.0552C143.507 74.3782 144.579 73.741 145.016 74.418C145.632 75.3737 146.704 75.4733 147.756 75.3937C148.551 75.3339 148.57 76.5883 147.776 76.6481Z" fill="#D7947A"/>
<path d="M130.379 55.3527C132.106 52.6448 132.364 49.2599 131.332 46.2334C129.982 42.3109 127.201 36.0788 123.17 35.6407C117.233 35.0036 115.267 39.9415 114.532 45.3175C113.798 50.6736 115.485 58.3792 122.912 59.0761C126.626 59.4146 128.969 57.5827 130.379 55.3527Z" fill="#EDB29B"/>
<path d="M123.789 52.7232C124.623 50.6127 125.338 48.3627 125.04 46.053C124.782 44.0022 123.372 40.7567 120.79 40.9359C119.917 40.9956 119.678 39.6417 120.552 39.5819C123.054 39.4027 124.901 41.3142 125.794 43.5243C127.085 46.7101 126.271 50.1149 125.06 53.1812C124.742 54.0175 123.471 53.5396 123.789 52.7232Z" fill="#2B2942"/>
<path d="M157.371 59.6718C156.696 57.7404 156.02 55.8091 155.345 53.8777C155.286 53.8777 155.226 53.8578 155.167 53.8578C154.75 53.7383 154.452 53.7383 154.054 53.7383C154.73 55.6498 155.405 57.5811 156.08 59.4926C154.968 59.9506 153.915 60.5081 152.903 61.185C152.287 61.6032 152.863 62.6186 153.498 62.2005C154.611 61.4439 155.723 60.8665 156.974 60.3687C157.232 60.289 157.49 59.9904 157.371 59.6718Z" fill="#2B2942"/>
<path d="M190.191 150.07C188.086 165.362 186.061 180.574 185.723 196.025C185.286 215.299 185.902 234.572 189.735 253.508C191.939 264.359 195.156 274.992 199.524 285.186C199.822 285.883 200.835 285.286 200.537 284.589C192.773 266.45 188.821 246.917 187.411 227.285C186.22 210.719 186.379 193.795 187.947 177.268C188.801 168.269 190.092 159.329 191.323 150.369C191.422 149.632 190.291 149.313 190.191 150.07Z" fill="#ED5F99"/>
<path d="M58.7405 122.854C74.8253 127.374 85.7668 142.248 85.2704 159.013C85.2505 160.009 83.7016 160.009 83.7413 159.013C84.2179 142.945 73.7728 128.668 58.3434 124.348C57.3902 124.069 57.7874 122.576 58.7405 122.854Z" fill="#ED5F99"/>
<path d="M117.081 296.939C110.012 312.669 107.629 325.81 99.8448 341.202C72.5803 336.383 22.7375 306.795 5.8783 276.033C3.13793 271.015 1.27133 265.977 0.49688 261.02C-0.0988541 257.077 -0.13858 252.677 0.298286 247.978C4.64713 201.406 55.0856 123.494 55.0856 123.494C75.9163 142.031 82.2708 205.289 82.2708 205.289C82.2708 205.289 62.5521 240.113 63.128 252.378C63.6244 262.792 102.804 288.676 117.081 296.939Z" fill="#FF70AA"/>
<path d="M5.8742 276.027C3.13384 271.009 1.26724 265.972 0.492791 261.014C-0.10294 257.071 -0.142667 252.671 0.294202 247.972C2.10125 249.306 3.84872 251.098 5.43733 253.368C12.467 263.324 10.1635 270.87 5.8742 276.027Z" fill="#ED5F99"/>
<path d="M109.95 310.595C110.149 310.595 110.347 310.516 110.506 310.357C110.804 310.058 110.804 309.56 110.486 309.261C90.3704 289.669 62.1725 251.858 59.3725 248.115C63.8604 231.987 87.7293 186.729 87.9676 186.271C88.1662 185.892 88.0272 185.434 87.6499 185.235C87.2726 185.036 86.8159 185.176 86.6173 185.554C85.6244 187.445 62.0533 232.106 57.7839 248.075C57.7244 248.294 57.7641 248.553 57.9031 248.732C58.2009 249.13 88.2258 289.749 109.394 310.376C109.573 310.536 109.751 310.595 109.95 310.595Z" fill="#ED5F99"/>
<path d="M93.1932 195.285C88.467 196.559 84.1579 198.709 80.2857 201.716C79.4715 202.333 78.4588 201.119 79.2729 200.482C83.3636 197.316 87.9309 195.046 92.9152 193.712C93.908 193.453 94.186 195.026 93.1932 195.285Z" fill="#ED5F99"/>
<path d="M87.2931 338.588C87.6704 338.588 87.9881 338.329 88.0477 337.951C88.1271 337.533 87.8292 337.134 87.4122 337.055C69.302 334.028 39.734 310.951 39.4361 310.712C39.0985 310.454 38.6219 310.513 38.3638 310.852C38.1056 311.19 38.1652 311.668 38.5028 311.927C39.734 312.883 68.6666 335.482 87.1739 338.568C87.2137 338.568 87.2534 338.588 87.2931 338.588Z" fill="#ED5F99"/>
<path d="M59.6318 249.088C54.0716 243.572 46.3668 240.705 38.5429 241.203C37.7883 241.243 37.8479 242.437 38.6025 242.377C46.1285 241.88 53.4759 244.647 58.8573 249.964C59.3935 250.501 60.1679 249.625 59.6318 249.088Z" fill="#ED5F99"/>
<path d="M50.2421 240.706C53.4789 242.737 56.1796 245.326 58.3639 248.452C58.8206 249.109 59.8532 248.432 59.3965 247.775C57.0731 244.469 54.1938 241.762 50.7981 239.611C50.1428 239.173 49.5868 240.288 50.2421 240.706Z" fill="#ED5F99"/>
<path d="M193.888 150.809C197.76 186.171 201.632 221.533 205.505 256.895C206.597 266.87 207.689 276.866 208.781 286.841C208.881 287.817 207.351 287.817 207.252 286.841C203.38 251.479 199.508 216.117 195.635 180.755C194.543 170.779 193.451 160.784 192.359 150.809C192.24 149.833 193.769 149.833 193.888 150.809Z" fill="#ED5F99"/>
<path d="M105.798 363.756C96.6036 360.391 90.4278 354.059 87.2903 344.76L270.319 165.461L288.826 184.456L105.798 363.756Z" fill="#021A5A"/>
<path d="M273.153 201L251.905 179.195L375.908 57.71L397.156 79.5151L273.153 201Z" fill="#021A5A"/>
<path d="M269.826 197.595C240.906 167.917 245.221 116.663 279.464 83.1153C313.706 49.568 364.909 46.4313 393.829 76.1092C422.748 105.787 418.433 157.041 384.191 190.588C349.949 224.136 298.746 227.272 269.826 197.595Z" fill="#021A5A"/>
<path d="M254.083 181.431C225.163 151.753 229.478 100.499 263.721 66.9514C297.963 33.4042 349.166 30.2674 378.086 59.9453C407.005 89.6232 402.691 140.877 368.448 174.425C334.206 207.972 283.003 211.109 254.083 181.431Z" fill="#514F6A"/>
<path d="M357.851 163.551C353.324 167.991 348.419 171.754 343.296 174.86C331.044 182.267 317.461 185.791 304.534 185.353C296.809 185.095 289.303 183.402 282.452 180.276C276.634 177.608 271.272 173.924 266.625 169.146C266.248 168.768 265.871 168.369 265.513 167.971C243.67 144.138 247.443 104.156 274.31 77.8336C277.885 74.3293 281.697 71.2431 285.669 68.575C292.619 63.8959 300.085 60.511 307.651 58.4402C315.336 56.3297 323.16 55.593 330.706 56.2301C343.474 57.3053 355.449 62.3229 364.702 71.4223C364.98 71.701 365.258 71.9798 365.536 72.2585C388.611 95.9129 385.176 136.79 357.851 163.551Z" fill="#DBDDFF"/>
<g opacity="0.5">
<path d="M307.654 58.4198L282.435 180.256C276.616 177.588 271.255 173.904 266.608 169.125C266.231 168.747 265.853 168.349 265.496 167.951L285.671 68.5546C292.622 63.8755 300.088 60.4906 307.654 58.4198Z" fill="white"/>
</g>
<g opacity="0.5">
<path d="M364.704 71.3996L343.297 174.858C331.045 182.265 317.462 185.789 304.535 185.351L330.707 56.2075C343.476 57.2628 355.45 62.3003 364.704 71.3996Z" fill="white"/>
</g>
<path d="M108.898 367.259C96.189 362.978 87.8487 354.437 83.8772 341.594L165.433 261.691L190.453 287.356L108.898 367.259Z" fill="#514F6A"/>
<path d="M263.369 205.88C263.369 205.88 250.521 198.314 247.026 199.967C243.551 201.599 255.426 211.097 255.426 211.097C255.426 211.097 247.721 206.836 244.782 207.672C241.843 208.508 250.025 216.513 250.025 216.513C250.025 216.513 244.762 213.864 243.094 216.652C241.426 219.42 242.876 221.49 245.418 223.681C247.96 225.871 251.415 226.209 253.162 225.652C254.89 225.094 255.426 221.65 255.426 221.65C255.426 221.65 261.661 221.749 262.833 219.937C263.985 218.125 263.29 216.134 263.29 216.134C263.29 216.134 265.831 216.971 267.857 215.119C269.882 213.267 269.485 211.316 269.485 211.316C269.485 211.316 272.186 208.289 274.092 206.139C275.999 203.989 272.484 199.748 270.637 196.84C268.79 193.914 262.853 196.721 257.988 195.447C257.988 195.447 255.069 195.666 256.598 198.573C258.127 201.48 262.217 202.575 263.27 203.232C264.283 203.869 263.369 205.88 263.369 205.88Z" fill="#EDB29B"/>
<path d="M102.403 310.077C102.403 310.077 115.37 308.524 123.829 308.305C129.648 308.146 134.354 306.931 136.002 309.181C137.65 311.431 126.093 314.537 125.06 314.816C124.028 315.075 102.403 310.077 102.403 310.077Z" fill="#EDB29B"/>
<path d="M95 320C93.8483 326.232 94.0113 327.58 99.8494 329.99C102.927 331.264 106.204 332.936 108.348 334.967C113.492 339.826 117.582 346.775 121.673 350.398C125.982 354.221 127.332 351.195 125.426 346.854C123.5 342.514 119.032 334.928 119.032 334.928C119.032 334.928 127.829 343.111 129.735 347.432C131.661 351.752 135.772 352.867 136.268 347.81C136.785 342.753 128.961 331.702 125.982 329.233C125.982 329.233 132.098 331.762 134.898 337.536C137.698 343.31 139.704 346.396 141.848 347.85C143.993 349.323 147.27 346.137 143.179 338.153C139.068 330.189 135.077 326.505 131.503 324.016C131.503 324.016 134.183 325.33 139.426 327.839C144.668 330.348 148.123 336.759 151.599 336.72C155.153 336.68 151.698 328.835 147.865 325.35C144.033 321.866 141.531 319.019 135.315 316.769C129.1 314.519 123.063 312.607 119.032 312.149C114.981 311.711 109.719 309.322 103.881 309.859C99.075 310.337 95.8936 315.281 95 320Z" fill="#EDB29B"/>
</svg>
